<svg version="1.2" xmlns="http://www.w3.org/2000/svg" viewBox="0 0 1230 497" width="1230" height="497">
	<style>
		.s0 { opacity: 1;fill: #c3c3c3 } 
		.s1 { opacity: .98;fill: #030303 } 
	</style>
	<g id="Layer 1">
		<g id="img1">
			<path id="Path 0" fill-rule="evenodd" class="s0" d="m-588-762.5v178.5h2399v-357h-2399z"/>
			<path id="Path 1" fill-rule="evenodd" class="s1" d="m1172.7 419.66c-1.61 0.39-1.84 1.95-2.13 15.14-0.18 8.08-0.04 17.05 0.3 19.91 0.5 4.1 1.06 5.32 2.63 5.69 1.1 0.26 2.79 0.06 3.75-0.46 1.53-0.82 1.75-2.57 1.72-14.19-0.04-12.81 0.05-13.34 2.5-16 1.88-2.04 3.5-2.76 6.28-2.78 2.06-0.02 4.55-0.58 5.54-1.25 1.09-0.75 1.67-2.19 1.5-3.72-0.27-2.31-0.73-2.52-6.04-2.75-4.38-0.19-5.87 0.11-6.25 1.25-0.28 0.83-1.06 1.52-1.75 1.54-0.69 0.03-1.93-0.67-2.75-1.54-0.83-0.87-1.95-1.52-2.5-1.43-0.55 0.09-1.81 0.36-2.8 0.59z"/>
			<path id="Path 2" fill-rule="evenodd" class="s1" d="m1134 420.72c-1.38 0.95-3.74 2.98-5.25 4.51-1.51 1.52-2.75 3.44-2.75 4.27 0 0.83-0.45 1.72-1 2-0.55 0.28-1 4.1-1 8.5 0 4.67 0.42 8 1 8 0.55 0 1 0.9 1 2 0 1.1 0.79 3.35 1.75 4.99 0.96 1.65 2.54 3 3.5 3 0.96 0.01 1.75 0.46 1.75 1.01 0 0.55 1.13 1 2.5 1 1.38 0 2.61 0.5 2.75 1.12 0.16 0.71 2.88 1.08 7.5 1 3.99-0.07 8.04-0.54 9-1.05 0.96-0.51 2.54-1.18 3.5-1.5 0.96-0.31 1.75-1.36 1.76-2.32 0-1.52-1.49-1.85-11.5-2.5-7.18-0.47-11.98-1.24-12.76-2.04-0.69-0.71-1.81-2.28-2.5-3.5-0.69-1.21-1.25-2.88-1.25-3.71 0-1.25 2.42-1.54 14.75-1.75l14.75-0.25c0.4-11.58 0.1-14.5-0.5-14.5-0.55 0-0.99-0.79-0.97-1.75 0.02-0.96-0.77-2.53-1.75-3.47-0.98-0.95-2.57-1.74-3.53-1.75-0.96-0.02-1.97-0.7-2.25-1.53-0.39-1.16-2.25-1.5-8.25-1.51-5.74 0-8.4 0.45-10.25 1.73zm7.55 5.28c0.3-0.55 0.86-0.99 1.25-0.98 0.38 0 2.5 0.64 4.7 1.4 2.2 0.76 4.11 2.11 4.25 2.98 0.14 0.88 0.7 1.6 1.25 1.6 0.55 0 1 1.12 1 5h-11c-6.67 0-11-0.39-11-1 0-0.55 0.45-1 1-1 0.55 0 1.01-0.79 1.03-1.75 0.01-0.96 0.74-2.54 1.62-3.5 0.88-0.96 2.45-1.75 3.48-1.75 1.03 0 2.12-0.45 2.42-1z"/>
			<path id="Path 3" fill-rule="evenodd" class="s1" d="m1087 420.79c-1.37 0.94-3.73 2.95-5.25 4.46-1.51 1.51-2.75 3.42-2.75 4.25 0 0.83-0.45 1.72-1 2-0.55 0.28-1 4.1-1 8.5 0 4.67 0.42 8 1 8 0.55 0 1 0.9 1 2 0 1.1 1.46 3.17 3.25 4.6 1.79 1.43 4.5 2.9 6.02 3.25 1.53 0.36 2.77 0.99 2.75 1.4-0.01 0.41 2.14 0.75 4.78 0.75 2.64 0 5.23-0.39 5.75-0.87 0.52-0.48 2.08-1.14 3.45-1.46 2.41-0.56 2.49-0.41 2.25 3.87-0.16 2.8-0.72 4.44-1.5 4.42-0.69-0.03-1.92 0.67-2.75 1.54-0.93 0.99-3.11 1.57-5.75 1.54-2.34-0.02-5.61-0.83-7.27-1.79-2.17-1.26-3.48-1.47-4.63-0.75-0.88 0.55-2.1 1.75-2.72 2.66-0.87 1.28-0.78 2.04 0.37 3.3 1.22 1.33 3.6 1.62 12.87 1.58l11.37-0.04 7.76-8-0.5-46.5c-22.91-0.39-25.42-0.14-27.5 1.29zm1.71 8.21c1.45-1.7 2.94-2 18.29-2l0.02 11.25q0.01 11.25-1.2 12.5c-0.74 0.76-3.81 1.24-7.77 1.22-4.35-0.02-7.22-0.55-8.55-1.58-1.1-0.86-2.58-2.76-3.28-4.22-0.71-1.47-1.27-4.58-1.25-6.92 0.02-2.34 0.48-4.47 1.03-4.75 0.55-0.28 1-1.17 1-2 0-0.83 0.77-2.4 1.71-3.5z"/>
			<path id="Path 4" fill-rule="evenodd" class="s1" d="m1039.48 420.5c-0.27 0.83-1.05 1.5-1.74 1.5-0.69 0-2.18 0.78-3.31 1.72-1.13 0.95-2.14 2.52-2.24 3.5-0.11 0.98-0.64 1.78-1.19 1.78-0.59 0-1 3.67-1 9 0 5.33 0.51 9.92 1.25 11.25 0.69 1.24 2.6 3.72 4.25 5.52 1.65 1.8 3.79 3.26 4.75 3.25 0.96-0.01 1.97 0.43 2.25 0.98 0.28 0.55 3.42 1 7 1 3.58 0 6.72-0.45 7-1 0.28-0.55 1.17-1 2-1 0.83 0 1.71 1.01 1.97 2.25 0.32 1.58-0.49 3.22-2.75 5.52-2.98 3.02-3.7 3.27-9.72 3.26-3.58 0-6.95-0.49-7.5-1.09-0.72-0.79-1.63-0.72-3.25 0.23-1.28 0.76-2.26 2.3-2.25 3.58 0 1.96 0.52 2.25 4 2.25 2.2 0 4.22 0.45 4.5 1 0.28 0.55 2.75 1 5.5 1 2.75 0 5.22-0.45 5.5-1 0.28-0.55 1.85-1 3.5-1 1.65 0 2.99-0.34 2.97-0.75-0.01-0.41 1.11-1.31 2.5-2 1.39-0.69 2.53-1.92 2.53-2.75 0-0.83 0.56-1.65 1.25-1.83 0.94-0.26 1.32-5.66 1.53-21.75 0.15-11.78 0.04-22.43-0.25-23.67-0.52-2.2-0.83-2.25-14.55-2.25-11.59 0-14.11 0.26-14.5 1.5zm5.52 5.5c0-0.55 2.14-1.02 4.75-1.04 3.09-0.03 5.27 0.51 6.25 1.54 0.83 0.87 2.06 1.57 2.75 1.54 0.92-0.03 1.25 2.7 1.25 10.46 0 7.73-0.38 10.9-1.43 12-0.99 1.04-3.51 1.51-8.25 1.52-6.14 0.02-7.1-0.26-9.58-2.75-2.52-2.53-2.74-3.37-2.61-9.77 0.08-3.85 0.55-7.22 1.03-7.5 0.48-0.28 1.02-1.4 1.2-2.5 0.19-1.18 1.21-2.1 2.48-2.25 1.19-0.14 2.16-0.7 2.16-1.25z"/>
			<path id="Path 5" fill-rule="evenodd" class="s1" d="m1014.5 419.67c-0.46 0.36-0.76 9.59-0.67 20.5l0.17 19.83 7.5-0.5c0.4-32.96 0.14-38.34-0.77-39.29-0.68-0.72-2.17-1.28-3.31-1.25-1.15 0.02-2.46 0.34-2.92 0.71z"/>
			<path id="Path 6" fill-rule="evenodd" class="s1" d="m986.49 419.92c-0.34 0.5-0.92 9.47-1.3 19.94-0.67 18.44-0.63 19.04 1.31 19.7 1.1 0.38 3.01 0.4 4.25 0.06 1.24-0.34 2.03-1.07 1.75-1.62-0.28-0.55-0.05-1 0.5-1 0.61 0 1.01-5.1 1.03-13.25 0.02-8.76 0.45-13.84 1.25-14.98 0.72-1.02 2.65-1.77 4.72-1.85 1.94-0.06 4.84-1.14 6.5-2.4 2.71-2.06 2.85-2.45 1.5-3.95-1.01-1.11-3.04-1.64-6.18-1.61-2.77 0.02-5.29 0.65-6.18 1.54-0.82 0.83-1.87 1.52-2.32 1.54-0.45 0.03-1.49-0.67-2.32-1.54-0.83-0.87-2.04-1.57-2.7-1.54-0.66 0.02-1.48 0.45-1.81 0.96z"/>
			<path id="Path 7" fill-rule="evenodd" class="s1" d="m843.5 419.67c-0.46 0.36-0.76 7.56-0.67 16 0.15 13.31 0.43 15.79 2.17 18.83 1.1 1.92 2.67 3.5 3.5 3.5 0.83 0 1.5 0.45 1.5 1 0 0.55 0.9 1 2 1 1.1 0 2.17 0.34 2.37 0.75 0.2 0.41 1.55 1.09 3 1.5 1.7 0.49 3.95 0.18 6.38-0.85 2.06-0.88 4.79-2.12 6.06-2.75 1.81-0.9 2.47-0.86 3 0.16 0.38 0.72 1.82 1.17 3.19 1l2.5-0.31c0.49-38.77 0.43-39.52-1.5-40-1.1-0.28-2.9-0.05-4 0.5-1.87 0.94-2 1.98-1.97 16.25l0.03 15.25c-3.92 1.94-7.42 2.51-10.31 2.52-3.88 0.01-5.84-0.51-7.5-2-2.11-1.9-2.26-2.85-2.37-15.77-0.06-7.56-0.06-14.31 0-15 0.07-0.69-0.89-1.47-2.13-1.74-1.24-0.26-2.74-0.49-3.33-0.5-0.6 0-1.46 0.29-1.92 0.66z"/>
			<path id="Path 8" fill-rule="evenodd" class="s1" d="m797.86 420.65c-1 1.22-1.42 5.92-1.59 17.75-0.12 8.86-0.22 17-0.21 18.1 0.01 1.1 0 5.49-0.02 9.75l-0.04 7.75 7.5-0.5c0.78-12.4 1.34-15.44 1.75-14.75 0.52 0.86 3.72 1.25 10.25 1.25 5.67 0 9.5-0.4 9.5-1 0-0.55 0.67-1 1.5-1 0.83 0 2.4-0.9 3.5-2 1.1-1.1 2-2.67 2-3.5 0-0.83 0.45-1.5 1-1.5 0.55 0 0.99-1.24 0.97-2.75-0.02-1.51 0.63-4.1 1.44-5.75 1.31-2.64 1.31-3.42 0.01-6.5-0.81-1.92-1.46-4.29-1.44-5.25 0.01-0.96-0.43-1.75-0.98-1.75-0.55 0-1.11-1.01-1.25-2.25-0.16-1.43-1.52-2.89-3.75-4.02-1.92-0.97-3.95-2.21-4.5-2.76-0.55-0.55-4.59-1-8.97-0.99-6.06 0.02-8.16 0.38-8.75 1.52-0.69 1.33-0.95 1.33-2.28 0-0.83-0.83-2.12-1.5-2.89-1.5-0.76 0-2 0.74-2.75 1.65zm13.14 5.35c0-0.55 1.58-1 3.5-1 1.92 0 3.72 0.45 4 1 0.28 0.55 1.29 1.01 2.25 1.03 0.96 0.01 2.55 0.8 3.53 1.75 0.98 0.94 1.77 2.96 1.75 4.47-0.02 1.51 0.48 3.09 1.1 3.5 0.65 0.43 0.89 2.02 0.57 3.75-0.31 1.65-0.89 4.35-1.3 6-0.41 1.65-1.23 3.45-1.84 4-0.6 0.55-2.44 1.71-4.08 2.58-1.64 0.87-4.42 1.55-6.17 1.5-1.76-0.04-3.78-0.65-4.5-1.35-0.72-0.69-2.32-1.26-3.56-1.25-2.2 0.02-2.25-0.24-2.22-10.73 0.01-8.36 0.37-11.14 1.6-12.5 0.87-0.96 2.43-1.75 3.47-1.75 1.05 0 1.9-0.45 1.9-1z"/>
			<path id="Path 9" fill-rule="evenodd" class="s1" d="m721.13 420.25c-0.66 0.75-0.82 2.65-0.41 4.75 0.51 2.61 0.38 3.31-0.52 2.75-0.9-0.57-1.2 1.7-1.2 9.25 0 5.5 0.34 10 0.75 10 0.41 0 0.86 1.57 1 3.5 0.16 2.22 1.25 4.53 3 6.33 1.51 1.56 4.1 3.17 5.75 3.57 1.65 0.41 4.35 0.99 6 1.3 1.73 0.32 3.32 0.08 3.75-0.57 0.41-0.62 2.23-1.13 4.05-1.13 1.82 0 3.85-0.56 4.52-1.25 0.97-1 1.21-1 1.2 0-0.01 0.82 1.26 1.16 3.73 1l3.75-0.25c0.4-32.95 0.14-38.35-0.77-39.32-0.68-0.73-2.35-1.18-3.73-1l-2.5 0.32c-0.45 28.7-0.51 29.06-3.12 31.75-1.46 1.51-3.15 2.79-3.77 2.85-0.61 0.05-3.36 0.18-6.11 0.29-4.23 0.17-5.35-0.19-7.25-2.35-2.12-2.38-2.26-3.42-2.24-16.54 0.02-9.99-0.34-14.36-1.24-15.27-0.7-0.69-1.78-1.26-2.41-1.25-0.62 0.01-1.63 0.58-2.23 1.27z"/>
			<path id="Path 10" fill-rule="evenodd" class="s1" d="m579.71 421c-1.49 1.75-1.53 2.22-0.28 3.75 0.78 0.96 2.54 1.75 3.9 1.75 1.36 0 2.3-0.34 2.07-0.75-0.22-0.41 1.4-0.75 3.6-0.75 2.2 0 5.01 0.56 6.25 1.25 1.24 0.69 3.05 1.92 4.03 2.75 0.98 0.83 1.77 2.74 1.75 4.25l-0.03 2.75c-16.16 0-20.85 0.48-22.2 1.25-1.22 0.69-3 2.15-3.97 3.25-1.14 1.29-1.78 3.68-1.8 6.75-0.02 2.84 0.67 5.86 1.71 7.5 0.95 1.51 2.19 3.24 2.75 3.85 0.55 0.6 2.59 1.37 4.51 1.7 1.92 0.33 4.96 0.85 6.75 1.15 1.86 0.32 3.25 0.12 3.25-0.45 0-0.59 3.5-1 8.5-1h8.5l0.09-32.5-8.59-8.51c-17.85 0.01-19.31 0.27-20.79 2.01zm5.79 22.34c1.65-0.62 5.25-0.91 8-0.65 2.75 0.26 5.56 0.66 6.25 0.89 0.69 0.23 1.26 2.09 1.28 4.17 0.02 2.55-0.64 4.39-2.08 5.75-1.84 1.74-2.86 1.9-8.03 1.25-3.26-0.41-6.82-1.31-7.92-2-1.15-0.72-2-2.32-1.99-3.75 0.01-1.37 0.35-2.96 0.76-3.51 0.4-0.56 2.08-1.52 3.73-2.15z"/>
			<path id="Path 11" fill-rule="evenodd" class="s1" d="m529.5 419.67c-0.46 0.36-0.76 9.59-0.67 20.5l0.17 19.83c4.19 0 5.02-0.57 5.08-1.75 0.04-0.96 0.27-4.45 0.51-7.75 0.25-3.3 0.9-6.45 1.45-7 0.55-0.55 0.96-3.25 0.89-6-0.06-2.75-0.07-6.24-0.02-7.75 0.07-2.24 0.55-2.75 2.59-2.75 1.38 0 2.72-0.45 3-1 0.28-0.55 2.08-1 4-1 1.92 0 3.5 0.45 3.5 1 0 0.55 0.91 1 2.01 1 1.11 0 2.68 0.9 3.5 2 1.12 1.51 1.55 5.51 1.74 16.25l0.25 14.25h7c0.48-24.62 0.19-29.76-0.69-31.5-0.69-1.38-1.94-3.18-2.78-4.01-0.84-0.83-2.77-2.29-4.28-3.25-1.98-1.25-4.84-1.74-10.25-1.74-5.78 0-7.61 0.34-8 1.5-0.28 0.83-1.06 1.52-1.75 1.54-0.69 0.03-1.92-0.67-2.75-1.54-0.83-0.87-1.99-1.57-2.58-1.54-0.6 0.02-1.46 0.34-1.92 0.71z"/>
			<path id="Path 12" fill-rule="evenodd" class="s1" d="m490 420c0 0.55-1.35 1.45-3 2-1.65 0.55-2.8 1.34-2.55 1.75 0.25 0.41-0.68 1.97-2.07 3.46-2.35 2.53-2.51 3.35-2.45 12.75 0.04 5.62 0.51 10.26 1.07 10.54 0.55 0.28 1.01 1.29 1.03 2.25 0.02 0.96 1.48 3 3.25 4.52 1.77 1.53 4.34 2.78 5.72 2.78 1.38 0.01 3.4 0.67 4.5 1.47 1.21 0.89 2.99 1.22 4.5 0.84 1.38-0.34 2.93-1.01 3.45-1.49 0.52-0.48 2.32-0.89 4-0.92 2.41-0.04 3.84-1.04 6.8-4.75 2.83-3.55 3.75-5.62 3.75-8.45 0-2.06 0.45-3.97 1-4.25 0.55-0.28 1-1.85 1-3.5 0-1.65-0.45-3.22-1-3.5-0.55-0.28-0.99-1.96-0.98-3.75 0.02-2.13-0.93-4.36-2.75-6.47-1.52-1.77-3.56-3.23-4.52-3.25-0.96-0.02-1.97-0.7-2.25-1.53-0.4-1.19-2.39-1.5-9.5-1.5-5.33 0-9 0.41-9 1zm4.5 6.89c1.65-1.04 4.24-1.88 5.75-1.89 1.51 0 2.75 0.45 2.75 1 0 0.55 0.79 0.99 1.75 0.97 0.96-0.02 2.49 0.77 3.39 1.75 0.9 0.98 1.93 3.58 2.29 5.78 0.36 2.2 0.66 4.9 0.67 6 0.01 1.1-0.31 3.58-0.72 5.5-0.4 1.92-1.89 4.66-3.3 6.07-2.23 2.22-3.27 2.52-7.58 2.2-2.75-0.21-6.02-0.92-7.28-1.57-1.25-0.66-2.26-1.99-2.25-2.95 0.02-0.96-0.42-1.75-0.97-1.75-0.58 0-1-3.17-1-7.5 0-5.67 0.43-8.02 1.75-9.62 0.96-1.16 3.1-2.96 4.75-3.99z"/>
			<path id="Path 13" fill-rule="evenodd" class="s1" d="m443 421.88c-1.92 1.59-3.37 3.5-3.23 4.25 0.15 0.75-0.31 1.93-1 2.62-1.03 1-0.98 2.05 0.23 5.42 0.86 2.39 2.25 4.31 3.25 4.5 0.96 0.18 1.75 0.78 1.75 1.33 0 0.55 1.13 1 2.5 1 1.38 0 2.72 0.67 3 1.5 0.37 1.12 2.06 1.49 6.75 1.47 4.71-0.03 6.67 0.4 7.97 1.75 0.95 0.98 1.75 2.68 1.78 3.78 0.03 1.1-0.97 2.56-2.22 3.24-1.26 0.68-6.97 1.38-12.78 1.56l-10.5 0.32c-0.46 4.96-0.11 5.38 2 5.38 1.37 0 2.84-0.04 3.25-0.09 0.41-0.04 0.97 0.43 1.25 1.06 0.28 0.62 2.53 1.4 5 1.73 3.16 0.41 5.55 0.09 8-1.08 1.92-0.91 4.51-1.65 5.75-1.64 1.39 0.01 3.44-1.41 5.38-3.73 2.65-3.17 3.07-4.37 2.68-7.75-0.29-2.55-1.51-5.19-3.38-7.28-1.7-1.9-3.87-3.27-5.18-3.25-1.24 0.02-2.03-0.42-1.75-0.97 0.31-0.62-2.26-1.01-6.75-1.03-6.55-0.03-7.42-0.27-9-2.5-1.69-2.38-1.67-2.57 0.5-5.47 2.2-2.93 2.43-2.99 10.75-2.9 4.67 0.05 9.29 0.05 10.25 0 1.28-0.07 1.68-0.83 1.5-2.85l-0.25-2.75c-23.91-0.5-24.03-0.48-27.5 2.38z"/>
			<path id="Path 14" fill-rule="evenodd" class="s1" d="m412.5 419.67c-0.46 0.36-0.76 9.59-0.67 20.5l0.17 19.83 7.5-0.5c0.77-22.47 1.45-29.76 2-30.69 0.67-1.13 2.61-1.79 5.89-2 3.7-0.23 5.13-0.8 5.88-2.31 0.54-1.1 0.7-2.79 0.36-3.75-0.44-1.21-1.7-1.75-4.13-1.75-1.92 0-4.85 0.67-6.5 1.5-2.68 1.34-3.13 1.34-4.25-0.04-0.69-0.85-2.19-1.53-3.33-1.5-1.15 0.02-2.46 0.34-2.92 0.71z"/>
			<path id="Path 15" fill-rule="evenodd" class="s1" d="m370.5 424.54l-5.5 5.55c0 15.59 0.43 20.13 1 20.41 0.55 0.28 1 1.17 1 2 0 0.83 1.46 2.85 3.25 4.51 1.79 1.65 4.15 2.99 5.25 2.97 1.1-0.02 3.35 0.64 5 1.48 1.65 0.84 4.24 1.53 5.75 1.53 1.51 0.01 4.21-0.62 6-1.38 1.79-0.77 4.04-1.67 5-2 0.96-0.34 1.63-1.4 1.49-2.36-0.23-1.51-1.65-1.79-10.25-2.06-9.58-0.3-10.1-0.44-12.74-3.25-1.51-1.62-2.75-4.07-2.75-5.44v-2.5l29.5-0.5c0.42-8.53 0.08-11.45-0.49-12-0.58-0.55-1.04-1.56-1.03-2.25 0.01-0.69-1.89-3.26-4.23-5.72l-4.25-4.48-16.5-0.05zm11.5 1.46c0-0.55 0.67-1 1.5-1 0.82 0 2.85 0.67 4.5 1.5 1.65 0.82 3.9 2.85 5 4.5 1.1 1.65 2 3.45 2 4 0 0.6-4.33 1-11 1-9.11 0-11-0.26-11-1.5 0-0.83 1.17-2.85 2.61-4.5 1.43-1.65 3.46-3 4.5-3 1.04 0 1.89-0.45 1.89-1z"/>
			<path id="Path 16" fill-rule="evenodd" class="s1" d="m255.24 422.77c-2.35 2.05-4.95 5.08-5.78 6.73-1.01 1.98-1.51 5.8-1.49 11.25 0.02 4.54 0.48 8.47 1.03 8.75 0.55 0.28 1 1.4 1 2.5 0 1.1 1.46 3.34 3.25 4.97 1.92 1.75 4.38 2.98 6 3 1.51 0.02 2.75 0.48 2.75 1.03 0 0.55 0.45 0.78 1 0.5 0.55-0.28 1.23-0.05 1.5 0.5 0.27 0.55 2.3 1 4.5 1 2.2 0 4.23-0.45 4.5-1 0.27-0.55 0.95-0.78 1.5-0.5 0.55 0.28 2.35-0.17 4-1 1.65-0.83 3-2.17 3-3 0-0.83-0.45-1.72-1-2-0.55-0.28-5.39-0.7-10.75-0.95-8.91-0.41-9.94-0.67-12-3-1.24-1.4-2.25-3.67-2.25-5.05v-2.5l29.5-0.5c0.42-8.53 0.08-11.45-0.49-12-0.58-0.55-1.03-1.67-1.01-2.5 0.02-0.83-2-3.41-4.48-5.75l-4.52-4.25c-15.26 0.03-15.63 0.15-19.76 3.77zm9.76 3.23c0-0.55 0.34-1.01 0.75-1.02 0.41-0.02 2.33 0.62 4.25 1.41 1.92 0.79 4.51 2.6 5.75 4.02 1.24 1.43 2.25 3.26 2.25 4.09 0 1.24-1.89 1.5-11 1.5-9.82 0-11-0.19-10.98-1.75 0.01-0.96 1.21-2.99 2.66-4.5 1.46-1.51 3.47-2.75 4.48-2.75 1.01 0 1.84-0.45 1.84-1z"/>
			<path id="Path 17" fill-rule="evenodd" class="s1" d="m183.05 419.64c-1.22 0.44-1.42 4.64-1.28 26.69 0.16 24.96 0.26 26.25 2.2 27.92 1.69 1.46 2.36 1.54 4.03 0.5 1.69-1.05 2.01-2.33 2-8v-6.75c4.65 0 6.23 0.45 6.5 1 0.27 0.55 1.85 1 3.5 1 1.65 0 3.23-0.45 3.5-1 0.27-0.55 2.08-1 4-1 1.92 0 3.5-0.45 3.5-1 0-0.55 1.01-1.21 2.25-1.47 1.46-0.3 3.24-2.31 5.07-5.75 2.49-4.67 2.78-6.14 2.5-12.66-0.21-4.81-0.76-7.51-1.57-7.75-0.69-0.2-1.25-1.27-1.25-2.37 0-1.1-1.91-3.81-4.25-6.03l-4.25-4.03c-13.9 0.05-17.5 0.47-17.5 1.06 0 0.55-0.79 0.75-1.75 0.45-0.96-0.31-2.65-0.73-3.75-0.95-1.1-0.21-2.65-0.15-3.45 0.14zm13.95 6.36c0-0.55 1.12-1 2.5-1 1.37 0 3.74 0.76 5.25 1.68 1.51 0.92 3.87 2.83 5.25 4.23 2.1 2.14 2.54 3.63 2.75 9.32 0.2 5.29-0.08 6.88-1.25 7.27-0.83 0.28-1.5 1.4-1.5 2.5q0 2-2 2c-1.1 0-2 0.45-2 1 0 0.55-1.69 1.27-3.75 1.6-2.37 0.38-5.31 0.02-12.25-2.6v-10.5c0-8.26 0.35-10.93 1.64-12.5 0.91-1.1 2.48-2 3.5-2 1.02 0 1.86-0.45 1.86-1z"/>
			<path id="Path 18" fill-rule="evenodd" class="s1" d="m110 419.98c-1.21 0.76-1.57 4.23-1.86 18.23-0.23 11.34 0.02 18.06 0.75 19.54 0.71 1.44 2.01 2.25 3.61 2.25 1.88 0 2.54-0.56 2.66-2.25 0.09-1.24 0.09-4.16 0-6.5-0.1-2.55 0.24-4.05 0.84-3.75 0.63 0.31 1-2.58 0.99-7.75 0-5.7 0.46-8.95 1.5-10.5 0.83-1.24 2.41-2.25 3.51-2.25 1.1 0 2.23-0.45 2.5-1 0.27-0.55 1.4-1 2.5-1 1.1 0 3.35 0.79 4.99 1.75 2.86 1.67 3 2.06 3 8.5 0.01 4.72 0.39 6.75 1.26 6.77q1.22 0.02-0.25 0.88c-1.05 0.61-1.21 1.29-0.52 2.24 0.54 0.75 0.85 4.06 0.7 7.36-0.23 5.05 0.06 6.32 1.86 8 1.89 1.77 2.3 1.83 3.51 0.5 0.99-1.08 1.4-4.86 1.47-13.5 0.07-8.34 0.55-12.92 1.57-15 0.81-1.65 1.46-3.56 1.44-4.25-0.02-0.69 0.53-1 1.22-0.69 0.69 0.3 1.92-0.17 2.75-1.05 0.83-0.88 2.63-1.57 4-1.53 1.38 0.04 3.96 1.19 5.75 2.55l3.25 2.47c-0.06 26.64 0.17 28.73 1.72 30.22 0.98 0.95 2.57 1.74 3.53 1.75 0.96 0.02 1.93-0.31 2.16-0.72 0.22-0.41 0.49-4.58 0.6-9.25 0.11-4.67 0.15-12.21 0.09-16.75l-0.1-8.25c-8.39-7.98-8.68-8.09-15.5-8.07-5.66 0.01-7.67 0.46-10.5 2.35l-3.5 2.34c-4.69-4.34-6.01-4.63-13.05-4.63-5.13 0.01-8.49 0.46-9.25 1.26-0.96 1-1.45 1-2.45-0.02-0.69-0.69-2.15-1.25-3.25-1.23-1.1 0.02-2.67 0.46-3.5 0.98z"/>
			<path id="Path 19" fill-rule="evenodd" class="s1" d="m91.5 419.67c-0.46 0.36-0.76 9.59-0.67 20.5l0.17 19.83 7.5-0.5c0.43-34.23 0.19-39.18-0.75-39.73-0.69-0.41-2.19-0.75-3.33-0.75-1.15-0.01-2.46 0.28-2.92 0.65z"/>
			<path id="Path 20" fill-rule="evenodd" class="s1" d="m894.18 409.31c0.18 0.66-0.13 1.12-0.68 1.02-0.55-0.09-1.06 1.26-1.14 3-0.08 1.75-0.19 3.73-0.25 4.42-0.06 0.69-1.01 1.25-2.11 1.25-1.1 0-2.67 0.22-3.5 0.5-0.82 0.28-1.5 1.4-1.5 2.5 0 1.15 0.96 2.37 2.25 2.87 1.24 0.48 2.79 1.49 3.44 2.25 0.77 0.89 1.21 5.56 1.25 13.13 0.04 6.77 0.48 11.96 1.06 12.25 0.55 0.28 1 1.29 0.99 2.25 0 0.96 0.9 2.54 2 3.5 1.11 0.96 2.35 1.74 2.76 1.73 0.41-0.01 2.21 0.66 4 1.5 1.86 0.87 4.43 1.27 6 0.94 1.51-0.32 2.42-0.89 2.01-1.25-0.41-0.37-0.3-1.23 0.25-1.92 0.54-0.69 0.77-1.92 0.49-2.75-0.33-0.99-1.78-1.49-4.25-1.47-2.32 0.02-4.41-0.64-5.47-1.75-1.46-1.5-1.73-3.86-1.75-15.03l-0.03-13.25c8.53 0 11.2-0.34 11.44-0.75 0.25-0.41 0.25-1.76 0-3-0.39-2.01-1.03-2.25-5.94-2.25h-5.5c-0.02-6.59-0.36-8.97-0.77-9.55-0.4-0.57-1.77-1.11-3.05-1.18-1.36-0.08-2.19 0.35-2 1.04z"/>
			<path id="Path 21" fill-rule="evenodd" class="s1" d="m770.5 408.67c-0.46 0.36-0.76 2.84-0.67 5.5 0.17 4.77 0.13 4.83-3.08 5.08-2.73 0.21-3.25 0.65-3.25 2.75 0 2.1 0.52 2.54 3.25 2.75l3.25 0.25v29c4.73 4.73 7.06 6 8.5 6 1.38 0 2.72 0.45 3 1 0.28 0.55 1.51 0.9 2.75 0.78 1.24-0.12 3.04-0.91 4.01-1.75 0.98-0.85 1.54-2.31 1.25-3.28-0.37-1.27-1.53-1.74-4.26-1.72-2.33 0.02-4.39-0.64-5.44-1.75-1.36-1.44-1.71-3.97-1.8-13.28-0.07-6.33-0.1-12.29-0.07-13.25 0.05-1.39 0.94-1.75 4.31-1.73 2.34 0.01 5.15-0.67 6.25-1.5l2-1.52c-3.1-2.35-5.91-3.03-8.25-3.02-2.34 0.01-4.47-0.43-4.75-0.98-0.28-0.55 0.06-0.99 0.75-0.98 0.97 0.01 0.98-0.27 0.06-1.25-0.65-0.7-0.88-1.88-0.5-2.63 0.43-0.84-0.27-2.08-1.81-3.23-1.37-1.03-2.99-1.88-3.58-1.89-0.6-0.01-1.46 0.28-1.92 0.65z"/>
			<path id="Path 22" fill-rule="evenodd" class="s1" d="m937.13 406.23c-0.63 0.7-0.91 1.94-0.64 2.77 0.32 0.96 2.56 1.79 6.25 2.31 3.17 0.44 7.22 1.23 9.01 1.75 3.2 0.93 3.25 1.03 3.35 7.19 0.06 3.44 0.06 13.79 0 23l-0.1 16.75h8c0-41.57 0.28-46.29 1.43-47.5 0.78-0.83 3.03-1.5 5-1.5 1.96 0 4.7 0.45 6.07 1 1.79 0.72 3.08 0.64 4.54-0.25 1.34-0.83 1.94-2.1 1.75-3.75l-0.29-2.5c-38.1-0.47-43.51-0.24-44.37 0.73z"/>
			<path id="Path 23" fill-rule="evenodd" class="s1" d="m1014.54 403.62c-0.48 0.39-0.8 1.99-0.71 3.55 0.09 1.55 0.84 3.5 1.67 4.33 0.83 0.83 1.84 1.51 2.25 1.53 0.41 0.02 1.55-0.77 2.53-1.75 1.1-1.1 1.68-2.93 1.5-4.78-0.24-2.53-0.75-3.05-3.32-3.3-1.67-0.16-3.43 0.03-3.92 0.42z"/>
			<path id="Path 24" fill-rule="evenodd" class="s1" d="m677.58 403.97c-0.32 0.56-1.65 1.03-2.96 1.03-1.3 0-2.99 0.7-3.75 1.54-0.75 0.85-1.74 1.53-2.19 1.5-0.45-0.02-1.47 0.63-2.25 1.46-0.79 0.83-1.43 1.95-1.43 2.5 0 0.55-0.45 1-1 1-0.55 0-0.78 0.45-0.5 1 0.28 0.55 0.05 1-0.5 1-0.55 0-1 1.12-1 2.5 0 1.37-0.45 2.5-1 2.5-0.62 0-1 5-1 13 0 8 0.38 13 1 13 0.55 0 1 0.67 1 1.5 0 0.83 0.79 2.73 1.75 4.23 0.96 1.51 2.54 3.53 3.5 4.5 0.96 0.98 2.42 1.77 3.25 1.77 0.83 0 1.5 0.45 1.5 1 0 0.55 2.03 1 4.5 1 2.67 0 4.3 0.41 4 1-0.29 0.58 1.17 1 3.5 1 2.2 0 4-0.45 4-1 0-0.55 1.69-0.99 3.75-0.98 2.06 0.01 5.33-0.73 7.25-1.64 1.92-0.91 4.75-2.84 6.27-4.27 1.53-1.44 2.76-3.4 2.75-4.36-0.01-0.96 0.43-1.75 0.98-1.75 0.62 0 1-5.83 1-15.5 0-9.67-0.38-15.5-1-15.5-0.55 0-1.01-0.56-1.02-1.25 0-0.69-1.24-2.69-2.75-4.45-1.5-1.77-3.29-3.23-3.98-3.25-0.69-0.03-1.25-0.5-1.25-1.05 0-0.55-0.45-0.78-1-0.5-0.55 0.28-1 0.05-1-0.5 0-0.55-1.13-1-2.5-1-1.38 0-2.68-0.34-2.9-0.75-0.22-0.41-3.56-0.88-7.42-1.03-4.09-0.17-7.26 0.14-7.6 0.75zm-0.58 8.03c0-0.58 3.33-1 8-1 4.67 0 8 0.42 8 1 0 0.55 0.9 1 2 1 1.14 0 2.54 1.08 3.25 2.53 0.69 1.39 1.81 2.51 2.5 2.5 0.93-0.02 1.26 3.19 1.28 12.72 0.02 8.42-0.4 13.62-1.25 15.31-0.7 1.41-1.97 3.21-2.82 4-0.84 0.79-2.53 2-3.75 2.69-1.21 0.69-5.36 1.47-9.21 1.75-4.18 0.3-7.2 0.1-7.5-0.5-0.28-0.55-1.51-1.39-2.75-1.87-1.24-0.48-2.87-2.17-3.62-3.75-0.75-1.59-1.76-3.67-2.25-4.63-0.48-0.96-0.88-6.7-0.88-12.75 0-6.84 0.4-11.09 1.05-11.25 0.57-0.14 1.14-0.96 1.25-1.83 0.11-0.88 0.78-2.34 1.49-3.25 0.71-0.92 2.17-1.67 3.25-1.67 1.08 0 1.96-0.45 1.96-1z"/>
			<path id="Path 25" fill-rule="evenodd" class="s1" d="m620.5 403.67c-0.46 0.36-0.76 11.61-0.67 25l0.17 24.33c5.29 6.82 5.9 7.09 10.75 7.05 2.89-0.03 5.47-0.5 5.75-1.05 0.28-0.55-0.29-1.91-1.25-3.03-0.96-1.12-2.42-2.01-3.25-1.99-0.83 0.03-2.07-0.52-2.77-1.21-0.94-0.95-1.26-6.78-1.25-23.02 0.02-17.58-0.27-22.23-1.48-24.25-0.83-1.38-2.33-2.5-3.33-2.5-1.01 0-2.21 0.3-2.67 0.67z"/>
			<path id="Path 26" fill-rule="evenodd" class="s1" d="m333 403.38c-0.28 0.29-3.2 0.73-6.5 0.99-3.3 0.25-7.01 0.49-8.25 0.54l-2.25 0.09v55c3.49 0.07 5.06-0.61 5.75-1.46 0.69-0.84 1.02-1.99 0.75-2.54-0.27-0.55-0.05-1.22 0.5-1.5 0.55-0.28 1-2.75 1-5.5v-5c21.23 0.08 23.79-0.22 25-1.5 0.83-0.87 2.09-1.57 2.82-1.54 0.73 0.02 1.86-0.52 2.51-1.21 0.66-0.69 1.98-2.49 2.93-4 0.96-1.51 1.74-3.65 1.74-4.75 0-1.1 0.45-2 1-2 0.55 0 1-2.47 1-5.5 0-3.03-0.45-5.72-1-6-0.55-0.28-1.02-1.29-1.04-2.25-0.02-0.96-1.93-3.6-4.25-5.85-3.7-3.61-4.93-4.18-10.21-4.74-3.3-0.35-7.13-0.89-8.5-1.22-1.38-0.32-2.73-0.35-3-0.06zm-9 7.62h10c6 0 10 0.4 10 1 0 0.55 0.79 0.99 1.75 0.97 0.96-0.02 2.65 0.93 3.75 2.1 1.62 1.74 2 3.52 2 9.43 0 5.91-0.38 7.69-2 9.43-1.83 1.95-3.02 2.13-25.5 2.07v-12.5z"/>
			<path id="Path 27" fill-rule="evenodd" class="s1" d="m90.8 404.7c-0.28 0.99-0.35 3.26-0.15 5.05 0.3 2.78 0.75 3.26 3.1 3.29 1.51 0.03 3.32-0.53 4.02-1.25 0.7-0.71 1.15-2.87 1-4.79-0.25-3.24-0.54-3.52-3.86-3.8-2.77-0.24-3.72 0.11-4.11 1.5z"/>
			<path id="Path 28" fill-rule="evenodd" class="s1" d="m51.35 404.2c-0.19 0.44-1.55 0.8-3.02 0.8-1.85 0-3.99 1.37-7 4.5-4.13 4.29-4.33 4.78-4.33 10.5 0 5.67 0.22 6.22 4 10 2.37 2.37 4.92 3.98 6.25 3.96 1.24-0.03 2.92 0.67 3.75 1.54 1.11 1.18 3.38 1.58 8.75 1.54 3.99-0.02 7.48 0.41 7.75 0.96 0.27 0.55 1.29 1 2.25 1 0.96 0 2.33 1.23 3.04 2.75 0.72 1.51 1.17 3.88 1 5.25-0.16 1.38-0.74 2.95-1.29 3.5-0.55 0.55-2.13 1.58-3.5 2.29-1.41 0.73-8.38 1.6-15.99 2-11.76 0.62-13.52 0.93-13.75 2.46-0.14 0.96 0.53 2.02 1.49 2.34 0.96 0.33 2.83 1.11 4.15 1.75 1.33 0.64 6.87 1.16 12.41 1.16 7.17 0 10.12-0.36 10.36-1.25 0.18-0.69 1.79-1.26 3.58-1.28 2.53-0.03 4.08-0.96 7.03-4.25 3.48-3.89 3.77-4.68 3.76-10.22-0.01-5.63-0.26-6.27-4.02-10.25-2.99-3.16-4.79-4.25-7.02-4.25-1.65 0-3-0.45-3-1 0-0.57-3-1-7-1-3.85 0-7.23-0.45-7.5-1-0.27-0.55-0.95-0.78-1.5-0.5-0.55 0.28-1 0.05-1-0.5 0-0.55-0.79-1.02-1.75-1.04-0.96-0.02-2.3-0.81-2.97-1.75-0.67-0.94-1.24-3.06-1.27-4.71-0.04-2.13 0.84-3.8 3.02-5.75 3.05-2.72 3.23-2.75 17.03-2.75 12.36 0 14.01-0.2 14.59-1.75 0.42-1.13-0.02-2.2-1.25-3.02-1.04-0.69-3.36-1.26-5.15-1.25-1.79 0.01-3.48-0.43-3.75-0.98-0.29-0.57-4.18-0.92-9.15-0.8-4.75 0.1-8.8 0.55-9 1z"/>
			<path id="Path 29" fill-rule="evenodd" class="s1" d="m229 428.5c0 26.4 0.08 27.55 2 28.75 1.1 0.69 1.7 1.59 1.33 2-0.36 0.41 1.1 0.82 3.25 0.91 2.16 0.09 4.82 0.06 5.92-0.05 1.1-0.12 2.23-0.4 2.5-0.64 0.27-0.23-0.17-1.17-1-2.08-0.83-0.91-2.51-2.04-3.75-2.52l-2.25-0.87c0.06-47.21-0.1-49.66-1.72-51.22-0.98-0.95-2.79-1.74-4.03-1.75l-2.25-0.03z"/>
			<path id="Path 30" fill-rule="evenodd" class="s1" d="m949.47 55.82c-1.7 1.7-1.82 3.93-1.68 30.26 0.13 25.88 0.3 28.57 1.93 30.05 1.48 1.35 5.48 1.73 23.78 2.26 12.1 0.36 31.45 0.95 43 1.33 17.7 0.58 21.31 0.95 23 2.39 1.97 1.69 2.01 3.26 2.5 106.55l0.5 104.84c62.51 0.45 69.75 0.23 70.75-0.82 0.98-1.04 1.31-23.78 1.52-105.25 0.15-57.16 0.33-104.38 0.4-104.93 0.07-0.55 0.18-1.67 0.23-2.5 0.09-1.31 5.9-1.52 45.1-1.68 24.75-0.1 45.33-0.55 45.74-1 0.41-0.45 0.64-14.77 0.5-31.82l-0.24-31c-250.16-0.5-255.27-0.44-257.03 1.32z"/>
			<path id="Path 31" fill-rule="evenodd" class="s1" d="m330.25 193.75l0.25 139.75 69.5 0.5c1.83-4.51 2.38-17.08 2.63-37.5 0.35-28.75 0.56-32.18 2.13-33.78 1.63-1.67 5.4-1.78 59.99-1.75 37.87 0.02 58.42-0.32 58.75-0.97 0.28-0.55 2.75-1 5.5-1 3.56 0 5.14-0.43 5.5-1.5 0.28-0.83 1.29-1.49 2.25-1.47 0.96 0.01 2.53 0.8 3.48 1.75 1.39 1.37 1.99 1.47 3 0.48 0.7-0.69 2.91-1.36 4.91-1.5 2-0.14 4.61-1.16 5.78-2.26 1.18-1.1 2.12-2.67 2.09-3.5-0.03-0.83 1.08-2.51 2.47-3.75 1.38-1.24 3.08-2.26 3.77-2.28 0.69-0.02 4.29-3.17 8-7 3.71-3.83 6.75-7.64 6.75-8.47 0-0.83 0.56-1.3 1.25-1.06 0.69 0.24 2.71-1 4.48-2.75 1.78-1.76 3.25-3.98 3.25-4.94 0.01-0.96 0.36-1.86 0.77-2 0.41-0.14 1.54-1.71 2.5-3.5 0.96-1.79 1.75-4.83 1.75-6.75 0-1.92 0.45-3.72 1-4 0.55-0.28 0.96-3.31 0.92-6.75-0.04-3.44-0.04-9.51 0-13.5 0.07-6.21 0.33-7.25 1.83-7.25 1.56 0 1.76-1.28 1.88-11.75 0.07-6.46 0.45-14.22 0.83-17.25 0.49-3.88 0.31-6.15-0.63-7.7-1.07-1.78-1.08-2.46-0.07-3.5 1.02-1.05 0.96-1.59-0.29-2.8-0.86-0.83-1.54-2.74-1.51-4.25 0.02-1.51-0.41-2.97-0.96-3.25-0.55-0.28-0.99-2.64-0.97-5.25 0.02-3.79-0.49-5.25-2.53-7.25-1.53-1.5-2.54-3.6-2.53-5.25 0.02-1.51-0.42-2.97-0.97-3.25-0.55-0.28-1-1.85-1-3.5 0-1.65-0.45-3-1-3-0.55 0-0.98-0.79-0.96-1.75 0.03-0.96-0.67-2.42-1.54-3.25-0.87-0.83-1.57-2.06-1.54-2.75 0.02-0.69-0.41-1.25-0.96-1.25-0.55 0-1-0.45-1-1 0-0.55-1.56-2.46-3.47-4.25-1.9-1.79-3.47-3.92-3.48-4.75-0.01-0.83-2.05-3.41-4.53-5.75-2.49-2.34-5.19-4.25-6.02-4.25-0.83 0-1.5-0.45-1.5-1 0-0.55-0.9-1-2-1-1.1 0-2.22-0.45-2.5-1-0.28-0.55-1.4-1-2.5-1-1.1 0-2-0.45-2-1 0-0.55-1.24-1.26-2.75-1.58-1.51-0.32-3.88-1.04-5.25-1.61-1.38-0.58-3.29-1.44-4.25-1.93-0.96-0.48-3.21-0.87-5-0.86-1.79 0.01-4.15-0.65-5.25-1.47-1.35-1.01-4.5-1.5-9.75-1.52-4.48-0.02-7.75-0.45-7.75-1.03 0-0.66-30.83-1-90.5-1h-90.51zm73.26-75.08c0.45-0.37 20.22-0.68 43.91-0.7 36.68-0.03 43.53 0.19 46.09 1.49 1.65 0.84 4.91 1.53 7.25 1.53 2.33 0.01 4.47 0.46 4.75 1.01 0.27 0.55 1.17 1 2 1 0.82 0 3.3 1.8 5.5 4 2.2 2.2 4 4.67 4 5.5 0 0.83 0.45 1.72 1 2 0.55 0.28 0.98 1.51 0.95 2.75-0.02 1.24 0.67 2.92 1.55 3.75 1.32 1.25 1.57 4.02 1.51 16.5-0.06 11.05-0.46 15.66-1.51 17.5-0.79 1.38-1.45 3.51-1.47 4.75-0.02 1.24-0.59 3.26-1.28 4.5-0.69 1.24-3.05 4.17-5.25 6.51-2.2 2.35-4.79 4.26-5.75 4.25-0.97 0-1.75 0.44-1.75 0.99 0 0.55-2.16 1-4.8 1-2.64 0-5.23 0.47-5.75 1.04-0.64 0.71-15.3 0.95-44.95 0.75-24.2-0.16-44.57-0.63-45.25-1.04-0.96-0.58-1.29-9.73-1.42-39.58-0.09-21.36 0.21-39.14 0.67-39.5z"/>
			<path id="Path 32" fill-rule="evenodd" class="s1" d="m101.55 54.99c-0.3 0.56-3.3 1.01-6.66 1.01-4.09 0-6.6 0.49-7.61 1.5-0.82 0.83-3.02 1.5-4.89 1.5-1.86 0-3.39 0.45-3.39 1 0 0.55-1.01 0.99-2.25 0.98-1.24-0.01-3.71 0.66-5.5 1.5-1.79 0.84-3.47 1.97-3.73 2.52-0.27 0.55-1.4 1-2.5 1-1.11 0-2.01 0.34-1.99 0.75 0.01 0.41-1.22 1.4-2.75 2.19-1.53 0.8-5.82 4.4-9.54 8-3.72 3.61-6.75 7.12-6.75 7.81 0.01 0.69-1.11 2.26-2.47 3.5-1.37 1.24-2.49 3.04-2.5 4-0.01 0.96-0.47 1.75-1.02 1.75-0.55 0-1 0.67-1 1.5 0 0.83-0.39 2.29-0.86 3.25-0.47 0.96-1.59 3.21-2.5 5-0.9 1.79-1.63 4.49-1.62 6 0.01 1.51-0.45 3.2-1.02 3.75-0.64 0.63-1.02 9.7-1.02 24.5 0 14.73 0.38 23.87 1.03 24.5 0.56 0.55 1 2.58 0.96 4.5-0.03 1.97 0.63 4.15 1.53 5 0.87 0.83 1.57 2.74 1.54 4.25-0.02 1.51 0.41 2.75 0.96 2.75 0.55 0 1 0.9 1 2 0 1.1 0.45 2 1 2 0.55 0 0.99 0.79 0.97 1.75-0.02 0.96 0.77 2.49 1.75 3.4 0.98 0.91 3.36 3.95 5.28 6.76 1.92 2.8 4.85 5.74 6.5 6.53 1.65 0.79 3.67 2.37 4.5 3.51 0.83 1.14 2.29 2.07 3.25 2.06 0.96-0.01 1.98 0.44 2.25 0.99 0.27 0.55 2.19 1.71 4.25 2.58 2.06 0.88 4.54 2 5.5 2.5 0.96 0.51 2.76 0.93 4 0.95 1.24 0.02 3.15 0.7 4.25 1.52 1.1 0.82 3.46 1.48 5.25 1.47 1.79-0.01 3.48 0.43 3.75 0.98 0.27 0.55 3.2 1 6.5 1 3.3 0 6.23 0.45 6.5 1 0.28 0.56 4.5 1 9.5 1 5.33 0 9.92 0.51 11.25 1.25 1.24 0.69 7.42 1.6 13.75 2.03 6.33 0.43 16.56 0.99 22.75 1.25 6.52 0.27 11.25 0.89 11.25 1.47 0 0.6 3.74 0.99 9.25 0.98 5.29-0.01 9.68 0.44 10.25 1.05 0.55 0.59 3.92 1.32 7.5 1.62 3.58 0.3 6.95 0.96 7.5 1.46 0.55 0.51 1.56 0.92 2.25 0.91 0.69-0.01 2.61 1.22 4.28 2.73 1.67 1.51 3.02 3.54 3 4.5-0.02 0.96 0.42 1.75 0.97 1.75 0.59 0 1 3.67 1 9 0 5-0.44 9.22-1 9.5-0.55 0.28-1.02 1.29-1.04 2.25-0.02 0.96-1.26 2.76-2.75 4-1.49 1.24-3.16 2.26-3.71 2.27-0.55 0.02-1.67 0.69-2.5 1.5-1.29 1.26-13.16 1.48-86 1.55-77.49 0.08-84.65 0.23-86.28 1.76-1.63 1.53-1.78 4.13-1.77 30.67 0.01 22.05 0.32 29.3 1.28 30.27 1.01 1 20.39 1.26 93.52 1.25 60.48-0.01 92.42-0.36 92.75-1.02 0.27-0.55 2.64-1.01 5.25-1.03 2.61-0.02 5.65-0.7 6.75-1.52 1.1-0.82 3.01-1.48 4.25-1.47 1.24 0.01 2.48-0.43 2.75-0.98 0.27-0.55 2.08-1 4-1 1.92 0 3.5-0.45 3.5-1 0-0.55 0.67-1 1.5-1 0.83 0 3.3-1.13 5.5-2.5 2.2-1.38 4.45-2.5 5-2.5 0.55 0 2.24-1.13 3.75-2.5 1.51-1.38 3.2-2.51 3.75-2.52 0.55-0.01 3.16-2.37 5.79-5.25 2.64-2.88 4.78-5.57 4.75-5.98-0.02-0.41 0.57-1.31 1.33-2 0.75-0.69 2.56-3.5 4.02-6.25 1.46-2.75 2.65-5.79 2.63-6.75-0.01-0.96 0.43-1.75 0.98-1.75 0.55 0 1-1.58 1-3.5 0-1.92 0.47-3.61 1.04-3.75 0.58-0.14 1.36-2.89 1.75-6.11 0.39-3.22 1.05-6.03 1.46-6.25 0.41-0.21 0.75-9.39 0.75-20.39 0-12.33-0.38-20.19-1-20.5-0.55-0.28-0.99-2.64-0.98-5.25 0.01-2.66-0.64-5.63-1.47-6.75-0.82-1.1-1.5-3.24-1.52-4.75-0.02-1.51-0.48-2.75-1.03-2.75-0.55 0-0.99-0.56-0.98-1.25 0.01-0.69-0.74-2.83-1.67-4.75-0.93-1.92-2.03-3.72-2.44-4-0.4-0.28-0.89-1.17-1.07-2-0.19-0.83-4.28-5.44-9.09-10.25-4.81-4.81-9.42-8.75-10.25-8.75-0.83 0-1.5-0.45-1.5-1 0-0.55-0.9-1-2-1-1.1 0-2.23-0.45-2.5-1-0.27-0.55-1.96-1.68-3.75-2.52-1.79-0.84-4.26-1.51-5.5-1.5-1.24 0.01-2.48-0.43-2.75-0.98-0.27-0.55-2.41-0.99-4.75-0.98-2.34 0.01-5.15-0.65-6.25-1.47-1.29-0.96-4.39-1.5-8.75-1.52-3.71-0.02-6.98-0.48-7.25-1.03-0.29-0.58-5.17-1-11.5-1-6.33 0-11.21-0.42-11.5-1-0.29-0.58-5.17-1-11.5-1-6.7 0-11.88-0.47-13.25-1.21-1.24-0.67-8.55-1.58-16.25-2.03-7.7-0.45-18.05-1.06-23-1.36-4.95-0.29-9.45-0.96-10-1.48-0.55-0.53-2.12-0.94-3.5-0.92-1.37 0.02-2.95-0.42-3.5-0.98-0.55-0.56-2.09-1.58-3.42-2.27-1.34-0.69-3.22-2.6-4.18-4.25-1.21-2.07-1.78-5.25-1.83-10.25-0.04-4.22 0.35-7.25 0.93-7.25 0.55 0 0.99-0.79 0.98-1.75-0.01-0.96 1.22-2.94 2.75-4.39 1.52-1.45 3.78-2.91 5.02-3.25 1.24-0.33 2.25-1.06 2.25-1.61 0-0.66 28.08-1.09 81.75-1.25l81.75-0.25v-63c-144.87-0.42-174.58-0.17-174.95 0.49z"/>
			<path id="Path 33" fill-rule="evenodd" class="s1" d="m756.55 25c-0.3 0.55-3.02 1-6.05 1-3.03 0-5.69 0.45-5.91 1-0.23 0.55-2.14 0.98-4.25 0.96-2.31-0.03-4.34 0.57-5.08 1.5-0.68 0.84-2.59 1.54-4.25 1.54-1.66 0-3.23 0.45-3.51 1-0.28 0.55-1.85 1-3.5 1-1.65 0-3 0.45-3 1 0 0.55-1.03 1-2.3 1-1.26 0-2.73 0.45-3.25 0.99-0.52 0.54-2.07 1.21-3.45 1.49-1.37 0.28-2.61 0.96-2.75 1.51-0.14 0.56-1.04 1.04-2 1.08-0.96 0.04-3.1 0.92-4.75 1.96-1.65 1.03-4.46 2.58-6.25 3.43-1.79 0.84-3.25 1.99-3.25 2.54 0 0.55-0.94 1-2.1 1-1.15 0-2.95 1.12-4 2.5-1.04 1.37-2.46 2.52-3.15 2.54-0.69 0.02-3.14 1.7-5.44 3.75-2.31 2.04-7.32 6.41-11.13 9.71-3.82 3.3-7.54 7.12-8.26 8.5-0.73 1.37-2.47 3.75-3.87 5.27-1.4 1.53-3.22 2.76-4.05 2.74-0.82-0.02-2.29 0.88-3.25 1.98-0.96 1.11-1.75 2.46-1.75 3.01 0 0.55-1.38 2.46-3.07 4.25-1.69 1.79-3.49 4.15-4.01 5.25-0.52 1.1-1.81 3.35-2.86 5-1.05 1.65-1.95 3.79-1.99 4.75-0.04 0.96-0.52 1.75-1.07 1.75-0.55 0-0.99 1.24-0.98 2.75 0.01 1.51-0.69 4.33-1.56 6.25-0.88 1.92-2.01 4.29-2.52 5.25-0.52 0.96-0.94 2.2-0.94 2.75 0 0.55-1.12 2.12-2.5 3.5-1.37 1.37-2.5 3.62-2.5 5 0 1.37-0.45 2.72-1 3-0.55 0.28-1 1.85-1 3.5 0 1.65-0.45 3-1 3-0.55 0-0.98 0.79-0.96 1.75 0.03 0.96-0.65 2.31-1.5 3-0.89 0.73-1.28 1.98-0.92 3 0.34 0.96-0.11 3.33-0.99 5.25-1.1 2.38-1.3 3.9-0.62 4.75q0.98 1.25-0.01 1.75c-0.62 0.31-1 8-1 20 0 12 0.38 19.69 1 20 0.55 0.28 1 2.97 1 6 0 3.46 0.46 5.69 1.25 6.01 0.89 0.37 1.28 3.79 1.36 11.75 0.07 7.54 0.48 11.32 1.25 11.49 0.63 0.14 1.14 1.15 1.14 2.25 0 1.1-0.45 2-1 2-0.55 0-1 0.67-1 1.5 0 1.12 0.99 1.44 3.87 1.25 2.72-0.18 3.76 0.12 3.5 1-0.2 0.69 0.08 1.47 0.63 1.75 0.55 0.28 1 1.62 1 3 0 1.38 1.1 3.51 2.46 4.75 1.35 1.24 2.48 2.81 2.5 3.5 0.02 0.69 1.05 2.08 2.29 3.09 1.24 1.01 3.46 4.28 4.95 7.25 1.48 2.98 3.62 6.42 4.75 7.66 1.13 1.24 2.04 2.59 2.02 3-0.01 0.41 1.13 1.87 2.53 3.25 1.4 1.37 2.53 3.17 2.5 4-0.02 0.83 5.48 7.03 12.23 13.79 6.75 6.75 13.06 12.27 14.02 12.25 0.96-0.02 2.43 1.09 3.25 2.46 0.83 1.38 2.4 2.5 3.5 2.5 1.1 0 2 0.45 2 1 0 0.55 1.46 1.71 3.25 2.58 1.79 0.87 5.16 2.56 7.5 3.75 2.34 1.19 3.95 2.51 3.58 2.92-0.36 0.41 0.31 0.75 1.5 0.75 1.19 0 2.39 0.45 2.67 1 0.28 0.55 1.96 1.68 3.75 2.52 1.79 0.84 3.93 1.5 4.75 1.48 0.83-0.02 2.96 0.64 4.75 1.48 1.79 0.84 3.47 1.97 3.75 2.52 0.28 0.55 1.85 1 3.5 1 1.65 0 3.18 0.34 3.4 0.75 0.22 0.41 1.91 0.88 3.75 1.04 1.84 0.16 3.8 0.73 4.35 1.27 0.55 0.53 2.58 0.96 4.5 0.95 1.93-0.01 4.4 0.57 5.5 1.31 1.1 0.73 4.25 1.45 7 1.59 2.75 0.15 5.45 0.65 6 1.12 0.55 0.47 10.34 0.88 21.75 0.91 12.9 0.04 20.94-0.32 21.25-0.94 0.28-0.55 2.86-1.01 5.75-1.03 3.13-0.01 5.86-0.59 6.75-1.44 0.83-0.78 3.23-1.56 5.35-1.72 2.12-0.17 4.03-0.65 4.25-1.06 0.22-0.41 1.75-0.75 3.4-0.75 1.65 0 3.22-0.45 3.5-1 0.28-0.55 1.63-1 3-1 1.38 0 2.5-0.45 2.5-1 0-0.55 0.45-0.78 1-0.5 0.55 0.28 1 0.05 1-0.5 0-0.55 0.68-1 1.5-1 0.83 0 2.29-0.41 3.25-0.91 0.96-0.51 4.34-2.08 7.5-3.5 3.16-1.43 5.97-3.04 6.25-3.59 0.28-0.55 1.4-1 2.5-1 1.1 0 2-0.45 2-1 0-0.55 0.68-1 1.5-1 0.83 0 2.74-1.13 4.25-2.5 1.51-1.38 3.2-2.49 3.75-2.48 0.55 0.02 2.13-1.12 3.5-2.52 1.38-1.4 3.06-2.54 3.75-2.53 0.69 0.02 8.9-7.62 18.25-16.97 10.67-10.67 17-17.75 17-19 0-1.1 0.45-2 1-2 0.55 0 0.99-0.56 0.97-1.25-0.01-0.69 1.13-2.38 2.53-3.75 1.4-1.38 2.54-3.29 2.53-4.25-0.02-0.96 0.42-1.75 0.97-1.75 0.55 0 1.2-0.79 1.44-1.75 0.24-0.96 1.3-3.33 2.37-5.25 1.06-1.92 2.4-4.63 2.97-6 0.57-1.38 1.31-3.17 1.64-4 0.33-0.83 1.46-2.85 2.52-4.5 1.05-1.65 1.95-4.24 1.99-5.75 0.04-1.51 0.52-2.97 1.07-3.25 0.55-0.28 0.99-1.96 0.98-3.75-0.01-1.79 0.65-4.15 1.47-5.25 0.82-1.1 1.5-3.69 1.52-5.75 0.02-2.06 0.48-3.97 1.03-4.25 0.55-0.28 1-3.88 1-8 0-4.13 0.45-7.72 1-8 0.61-0.3 1-7 1-17 0-10-0.39-16.7-1-17-0.55-0.28-1-3.42-1-7 0-3.58-0.45-6.72-1-7-0.55-0.28-1.01-2.19-1.03-4.25-0.02-2.06-0.7-4.65-1.52-5.75-0.82-1.1-1.48-3.46-1.47-5.25 0.01-1.79-0.43-3.25-0.98-3.25-0.55 0-0.99-1.01-0.99-2.25 0.01-1.24-1.11-4.61-2.5-7.5-1.38-2.89-2.51-5.92-2.51-6.75 0-0.83-0.45-1.72-1-2-0.55-0.28-1-1.4-1-2.5 0-1.1-0.45-2-1-2-0.55 0-0.99-0.79-0.97-1.75 0.02-0.96-0.91-2.65-2.07-3.75-1.16-1.1-2.99-3.8-4.06-6-1.08-2.2-3.09-5.35-4.46-7-1.38-1.65-2.49-3.34-2.47-3.75 0.02-0.41-1.92-2.89-4.3-5.5-2.38-2.61-4.97-5.71-5.75-6.88-0.78-1.18-5.13-6.01-9.67-10.75-4.54-4.74-8.81-8.61-9.5-8.59-0.69 0.02-2.15-0.93-3.25-2.1-1.1-1.18-3.24-2.77-4.75-3.53-1.51-0.77-3.65-2.3-4.75-3.4-1.1-1.1-4.03-2.9-6.5-4-2.47-1.1-4.72-2.45-5-3-0.28-0.55-1.4-1-2.5-1-1.1 0-2-0.34-2-0.75 0-0.41-1.46-1.34-3.25-2.06-1.79-0.73-3.92-1.74-4.75-2.26-0.82-0.52-2.17-1.2-3-1.51-0.82-0.31-2.29-0.98-3.25-1.49-0.96-0.51-2.87-0.93-4.25-0.93-1.37 0-2.67-0.56-2.89-1.25-0.21-0.69-1.56-1.14-3-1-1.43 0.14-3.17-0.45-3.86-1.29-0.79-0.98-2.83-1.53-5.5-1.5-2.34 0.02-4.47-0.41-4.75-0.96-0.28-0.55-3.2-1-6.5-1-3.3 0-6.22-0.45-6.5-1-0.31-0.62-9.15-1-23.45-1-14.27 0-23.16 0.38-23.5 1zm12.95 19.53c2.2-0.73 7.94-1.37 12.75-1.43 5.75-0.06 10.03 0.42 12.5 1.42 2.11 0.86 6.7 1.52 10.5 1.5 3.85-0.01 6.75 0.41 6.75 0.98 0 0.55 2.03 1 4.5 1 2.47 0 4.5 0.45 4.5 1 0 0.55 0.9 1 2 1 1.1 0 4.59 1.17 7.75 2.6 3.16 1.44 6.65 2.96 7.75 3.39 1.1 0.44 4.59 2.08 7.75 3.65 3.16 1.57 5.75 3.2 5.75 3.61 0 0.41 0.79 0.73 1.75 0.71 0.96-0.03 2.43 0.67 3.25 1.54 0.83 0.87 2.06 1.57 2.75 1.54 0.69-0.02 1.25 0.41 1.25 0.96 0 0.55 0.56 1 1.25 1 0.69-0.01 2.15 1.14 3.25 2.53 1.1 1.4 2.56 2.53 3.25 2.51 0.69-0.02 6.2 4.91 12.25 10.96 6.05 6.05 11 11.45 11 12 0 0.55 1.34 2.46 2.97 4.25 1.63 1.79 3.99 5.15 5.25 7.47 1.25 2.32 3.07 5.13 4.03 6.25 0.96 1.12 1.74 2.37 1.73 2.78-0.01 0.41 0.66 2.21 1.5 4 0.84 1.79 1.97 3.47 2.52 3.75 0.55 0.28 1 1.4 1 2.5 0 1.1 0.45 2 1 2 0.55 0 1 1.12 1 2.5 0 1.37 0.45 2.5 1 2.5 0.55 0 1 1.35 1 3 0 1.65 0.56 3.16 1.25 3.36 0.69 0.2 1.58 2.33 1.98 4.75 0.39 2.41 1 6.42 1.34 8.89 0.35 2.47 1.04 4.95 1.54 5.5 0.51 0.55 0.92 11.8 0.92 25 0 14.64-0.39 24.39-0.99 25-0.55 0.55-1.12 2.96-1.27 5.35-0.15 2.39-0.61 4.53-1.02 4.75-0.41 0.22-0.73 2.09-0.71 4.15 0.03 2.18-0.62 4.38-1.54 5.25-0.87 0.83-1.57 2.29-1.54 3.25 0.02 0.96-0.37 2.54-0.88 3.5-0.5 0.96-1.64 3.33-2.52 5.25-0.89 1.92-2.01 4.17-2.5 5-0.49 0.83-2.08 3.97-3.53 7-1.45 3.03-3.51 6.96-4.58 8.75-1.07 1.79-2.86 4.26-3.97 5.5-1.11 1.24-2.02 2.7-2.03 3.25 0 0.55-5.73 6.72-12.73 13.71-7 7-13.06 12.51-13.47 12.25-0.41-0.25-0.64 0.08-0.5 0.73 0.14 0.66-0.54 1.33-1.5 1.5-0.96 0.17-3.32 1.89-5.25 3.81-1.92 1.92-3.95 3.5-4.5 3.5-0.55 0-3.14 1.45-5.75 3.23-2.61 1.78-5.42 3.33-6.25 3.46-0.82 0.12-1.61 0.69-1.75 1.26-0.14 0.58-0.81 1.04-1.5 1.02-0.69-0.02-2.6 0.65-4.25 1.49-1.65 0.84-3.79 1.53-4.75 1.53-0.96 0.01-1.75 0.46-1.75 1.01 0 0.55-0.34 0.8-0.75 0.55-0.41-0.24-2.1 0.22-3.75 1.03-1.65 0.82-3.67 1.46-4.5 1.44-0.82-0.02-2.4 0.56-3.5 1.29-1.1 0.72-3.57 1.43-5.5 1.56-1.92 0.13-3.95 0.62-4.5 1.1-0.55 0.47-4.6 1.15-9 1.5-4.4 0.35-12.72 0.64-18.5 0.64-5.78 0-14.32-0.29-19-0.63-4.67-0.34-8.95-1.05-9.5-1.57-0.55-0.52-2.8-0.95-5-0.96-2.2-0.01-4.9-0.68-6-1.5-1.1-0.82-3.01-1.48-4.25-1.47-1.24 0.01-3.15-0.43-4.25-0.98-1.1-0.55-2.9-1.45-4-2-1.1-0.55-3.12-1-4.5-1-1.37 0-2.72-0.67-3-1.5-0.28-0.83-1.4-1.5-2.5-1.5-1.1 0-2-0.45-2-1 0-0.55-2.03-1.56-4.51-2.25-2.48-0.69-4.5-1.59-4.5-2 0.01-0.41-1-1.22-2.24-1.79-1.24-0.57-3.84-2.03-5.79-3.25-1.95-1.21-5.1-3.43-7-4.93-1.9-1.5-4.02-2.74-4.71-2.75-0.69-0.02-1.25-0.7-1.25-1.53 0-0.83-0.45-1.5-1-1.5-0.55 0-5.16-4.18-10.25-9.29-5.09-5.1-10.6-11.24-12.25-13.64-1.65-2.39-3.45-5.08-4-5.98-0.55-0.9-1.93-2.97-3.07-4.61-1.14-1.64-2.83-4.67-3.75-6.73-0.93-2.06-2.13-3.97-2.68-4.25-0.55-0.28-1-1.4-1-2.5 0-1.1-0.45-2.9-1-4-0.55-1.1-1.39-2.79-1.86-3.75-0.47-0.96-1.15-3.21-1.5-5-0.35-1.79-1.09-3.25-1.64-3.25-0.55 0-1-1.58-1-3.5 0-1.92-0.45-3.72-1-4-0.55-0.28-1-2.53-1-5 0-2.47-0.45-4.72-1-5-0.55-0.28-1-3.31-0.99-6.75 0-3.44-0.68-8.84-1.5-12-0.83-3.16-1.51-7.33-1.51-9.25 0-1.92 0.68-6.09 1.51-9.25 0.82-3.16 1.5-8.34 1.5-11.5-0.01-3.16 0.44-5.97 0.99-6.25 0.55-0.28 1-2.3 1-4.5 0-2.2 0.45-4.22 1-4.5 0.55-0.28 1-1.63 1-3 0-1.38 0.75-3.96 1.67-5.75 0.92-1.79 2.04-4.04 2.5-5 0.46-0.96 0.83-2.88 0.83-4.25 0-1.38 0.45-2.5 1-2.5 0.55 0 0.98-0.79 0.96-1.75-0.03-0.96 0.67-2.42 1.54-3.25 0.87-0.83 1.57-2.29 1.54-3.25-0.02-0.96 0.41-1.75 0.96-1.75 0.55 0 0.99-0.56 0.98-1.25-0.01-0.69 0.63-2.6 1.43-4.25 0.8-1.65 2.4-3.9 3.55-5 1.16-1.1 2.09-2.56 2.07-3.25-0.02-0.69 1.55-2.83 3.47-4.75 1.93-1.92 3.5-3.95 3.5-4.5 0-0.55 4.3-5.5 9.56-11 5.26-5.5 10.22-10 11.04-10 0.81 0 3.05-1.58 4.98-3.5 1.92-1.92 4.06-3.5 4.75-3.5 0.68 0 2.13-0.92 3.21-2.05 1.08-1.12 4.43-3.3 7.46-4.83 3.03-1.53 6.53-3.31 7.79-3.95 1.26-0.64 3.17-1.62 4.25-2.17 1.08-0.55 2.64-1 3.46-1 0.83 0 1.5-0.45 1.5-1 0-0.55 1.24-0.98 2.75-0.96 1.51 0.03 3.43-0.67 4.25-1.54 0.83-0.87 2.74-1.57 4.25-1.54 1.51 0.02 2.97-0.41 3.25-0.96 0.28-0.55 2.53-1 5-1 2.47 0 4.5-0.45 4.5-1 0-0.57 3.3-1.03 7.75-1.08 4.26-0.04 9.55-0.67 11.75-1.39z"/>
			<path id="Path 34" fill-rule="evenodd" class="s1" d="m770.45 115.92c-0.52 0.51-3.2 1.13-5.95 1.38-2.75 0.24-5.11 0.95-5.25 1.57-0.14 0.62-1.6 1.13-3.25 1.13-1.65 0-3.28 0.45-3.63 1-0.35 0.55-1.7 1-3 1-1.3 0-2.37 0.45-2.37 1 0 0.55-0.6 1-1.32 1-0.73 0-2.76 1.12-4.5 2.5-1.75 1.37-3.56 2.5-4.02 2.5-0.47 0-3.84 2.92-7.5 6.5-3.67 3.58-6.44 6.95-6.16 7.5 0.28 0.55-0.65 2.01-2.06 3.25-1.41 1.24-3.22 3.6-4.02 5.25-0.81 1.65-1.45 3.79-1.44 4.75 0.01 0.96-0.43 1.97-0.98 2.25-0.55 0.28-0.98 1.96-0.96 3.75 0.03 1.79-0.65 3.81-1.5 4.5-1.22 0.99-1.54 3.54-1.54 12.25 0 6.05-0.45 12.12-1 13.5-0.55 1.37-0.96 5.99-0.91 10.25 0.05 4.83-0.33 7.84-1 8-0.6 0.14-1.09 1.83-1.09 3.75 0 2.22-0.55 3.68-1.5 4-0.83 0.28-1.5 1.4-1.5 2.5 0 1.1-0.45 2-1 2-0.55 0-0.99 0.79-0.97 1.75 0.01 0.96-0.32 2.13-0.75 2.6-0.43 0.46-0.88 1.59-1 2.5-0.12 0.91-0.91 1.99-1.75 2.4-0.84 0.41-1.31 1.2-1.03 1.75 0.28 0.55-0.18 1-1 1-0.83 0-1.5 0.89-1.5 2 0 1.1-1.46 3.25-3.25 4.79-1.79 1.53-4.71 4.45-6.5 6.5-1.79 2.04-3.25 3.37-3.26 2.96 0-0.41-0.69 0.6-1.53 2.25-0.84 1.65-1.51 3.67-1.5 4.5 0.01 0.83 1.38 2.96 3.03 4.75 1.66 1.79 3.57 3.27 4.26 3.29 0.69 0.02 2.15-1.11 3.25-2.51 1.1-1.39 2.67-2.53 3.5-2.52 0.82 0.01 3.41-1.9 5.74-4.25 2.33-2.34 4.23-4.71 4.22-5.26-0.02-0.55 1.57-2.69 3.51-4.75 1.94-2.06 3.54-4.31 3.56-5 0.02-0.69 0.58-1.97 1.25-2.85 0.67-0.88 1.67-1.78 2.22-2 0.55-0.22 1-1.04 1-1.82 0-0.78 0.56-1.56 1.25-1.75 0.69-0.18 1.23-1.12 1.21-2.08-0.03-0.96 0.53-2.27 1.25-2.91 0.71-0.65 1.35-2.45 1.43-4 0.07-1.56 0.63-2.95 1.25-3.09 0.61-0.14 1.11-1.83 1.11-3.75 0-1.92 0.34-3.68 0.75-3.9 0.41-0.22 0.85-3.03 0.98-6.25 0.12-3.22 0.91-7.54 1.75-9.6 0.96-2.37 1.54-7.16 1.59-13 0.03-5.09 0.15-10.22 0.25-11.4 0.1-1.19 0.52-1.98 0.93-1.75 0.41 0.22 0.75-1.18 0.75-3.1 0-1.92 0.45-3.61 0.99-3.75 0.55-0.14 1.11-1.45 1.25-2.92 0.14-1.47 0.48-2.48 0.76-2.25 0.28 0.23 1.29-0.93 2.25-2.58 0.96-1.65 1.74-3.56 1.73-4.25-0.02-0.69 2.23-3.39 5-6 2.76-2.61 5.69-4.75 6.52-4.75 0.83 0 1.84-0.56 2.25-1.24q0.74-1.23-0.5-0.5c-0.69 0.41-1.25 0.52-1.25 0.24 0-0.28 2.03-1.63 4.5-3 2.47-1.38 4.28-2.05 4-1.5-0.28 0.55 0.51 0.32 1.75-0.51 1.24-0.82 2.59-1.27 3-1 0.41 0.28 1.76-0.18 3-1.01 1.76-1.2 5.17-1.5 15.75-1.42 7.42 0.06 14.02 0.19 14.65 0.28 0.64 0.09 0.98 0.5 0.75 0.91-0.22 0.41 0.96 1.09 2.62 1.5 1.67 0.41 3.02 1.09 3 1.5-0.01 0.41 0.54 0.74 1.23 0.72 0.69-0.02 2.6 0.65 4.25 1.48 1.65 0.82 5.92 4.39 9.5 7.92 3.57 3.53 7.96 8.49 9.75 11.02 1.79 2.54 3.25 5.28 3.25 6.11 0 0.83 0.45 1.5 1 1.5 0.55 0 1 1.58 1 3.5 0 1.92 0.45 3.5 1 3.5 0.55 0 1 1.8 1 4 0 2.2 0.63 4.56 1.4 5.25 1.05 0.95 1.42 4.6 1.5 15 0.08 11.19-0.18 13.94-1.4 14.75-1.08 0.72-1.49 2.77-1.46 7.25 0.03 3.44-0.35 6.47-0.84 6.75-0.49 0.28-0.96 2.3-1.05 4.5-0.08 2.2-0.61 4.45-1.17 5-0.56 0.55-0.99 2.58-0.95 4.5 0.03 1.99-0.63 4.15-1.54 5-0.88 0.83-1.39 1.95-1.12 2.5 0.27 0.55-0.17 2.35-0.97 4-0.81 1.65-1.45 4.01-1.43 5.25 0.02 1.24-0.42 2.25-0.97 2.25-0.55 0-0.98 1.24-0.94 2.75 0.03 1.51-0.63 3.42-1.47 4.25-0.84 0.83-1.65 2.7-1.81 4.16-0.15 1.46-0.5 2.5-0.78 2.31-0.28-0.19-1.05 1.09-1.72 2.84-0.68 1.76-1.2 3.64-1.16 4.19 0.03 0.55-0.66 1.34-1.53 1.75-0.87 0.41-1.59 1.42-1.59 2.25 0 0.83-0.45 1.5-1 1.5-0.55 0-1 0.9-1 2 0 1.1-0.45 2-1 2-0.55 0-0.98 0.79-0.96 1.75 0.03 0.96-0.68 2.42-1.58 3.25-1.04 0.96-1.53 2.77-1.36 5 0.14 1.92 1.19 4.52 2.33 5.78 1.14 1.25 2.97 2.26 4.07 2.25 1.1-0.01 4.03-2.12 6.5-4.69 2.64-2.73 6.47-8.64 9.25-14.25 2.61-5.28 4.75-10.15 4.75-10.84 0-0.69 1.13-2.94 2.5-5 1.38-2.06 2.51-4.76 2.5-6 0-1.24 0.45-2.25 1-2.25 0.55 0 1-1.35 1-3 0-1.65 0.45-3.22 1-3.5 0.55-0.28 0.98-1.74 0.96-3.25-0.03-1.51 0.63-3.42 1.47-4.25 0.83-0.83 1.51-3.08 1.51-5 0-1.92 0.4-3.95 0.89-4.5 0.49-0.55 0.97-3.03 1.06-5.5 0.1-2.47 0.54-4.95 0.99-5.5 0.45-0.55 0.92-3.47 1.05-6.5 0.13-3.03 0.88-6.4 1.66-7.5 1.1-1.54 1.43-6.01 1.46-19.5 0.03-14.73-0.21-17.74-1.55-19-0.92-0.87-1.57-3.07-1.54-5.25 0.02-2.06-0.41-3.97-0.96-4.25-0.55-0.28-0.99-1.51-0.98-2.75 0.01-1.24-0.66-3.71-1.5-5.5-0.84-1.79-1.97-3.47-2.52-3.75-0.55-0.28-1-1.4-1-2.5 0-1.1-0.45-1.78-1-1.5-0.55 0.28-1-0.4-1-1.5 0-1.18-3.81-5.88-9.25-11.42-5.09-5.18-10.38-9.91-11.75-10.52-1.38-0.6-4.97-2.44-8-4.08-3.03-1.64-5.95-2.97-6.5-2.94-0.55 0.03-1.68-0.67-2.5-1.54-0.93-0.99-3.11-1.57-5.75-1.54-2.34 0.02-4.47-0.41-4.75-0.96-0.28-0.56-4.6-1-9.8-1-5.12 0-9.73 0.42-10.25 0.92zm4 26.03c-0.52 0.52-2.75 1.05-4.95 1.17-2.2 0.12-4.55 0.66-5.21 1.19-0.67 0.53-2.25 1.03-3.5 1.12-1.26 0.08-2.18 0.7-2.04 1.36 0.14 0.67-0.67 1.21-1.79 1.21-1.16 0-4.73 2.66-8.25 6.14-3.42 3.38-6.3 6.87-6.41 7.75-0.11 0.89-0.68 1.72-1.25 1.86-0.58 0.14-1.03 1.04-1.01 2 0.03 0.96-0.67 2.42-1.54 3.25-0.92 0.87-1.57 3.07-1.54 5.25 0.02 2.06-0.41 3.97-0.96 4.25-0.6 0.3-0.98 6.36-0.94 15.25 0.03 9.57-0.32 14.84-1 15-0.58 0.14-1.04 1.94-1.02 4 0.03 2.23-0.61 4.36-1.58 5.25-0.89 0.83-1.4 2.17-1.12 3 0.28 0.83-0.12 2.4-0.88 3.5-0.77 1.1-1.41 3.24-1.43 4.75-0.02 1.51-0.48 2.97-1.03 3.25-0.62 0.31-0.42 1.46 0.5 3 0.83 1.37 2.4 2.5 3.5 2.5 1.1 0 2 0.45 2 1 0 0.55 1 0.89 2.23 0.75 1.23-0.14 3.46-1.6 4.96-3.25 1.5-1.65 2.75-4.01 2.77-5.25 0.02-1.24 0.49-2.47 1.04-2.75 0.55-0.28 0.98-1.74 0.96-3.25-0.03-1.51 0.63-3.42 1.47-4.25 0.83-0.83 1.51-3.08 1.51-5 0-1.92 0.42-3.95 0.93-4.5 0.51-0.55 0.98-5.16 1.03-10.25 0.06-5.09 0.51-10.26 1.02-11.5 0.5-1.24 0.93-5.17 0.94-8.75 0.03-4.87 0.43-6.69 1.59-7.25 0.85-0.41 1.55-1.31 1.56-2 0-0.69 1.91-3.29 4.25-5.78 2.33-2.49 5.82-5.3 7.74-6.25 2.5-1.23 5.93-1.72 12-1.7 4.67 0.02 9.24 0.13 10.15 0.25 0.91 0.13 1.48 0.57 1.25 0.98-0.22 0.41 0.16 0.73 0.85 0.71 0.69-0.03 1.92 0.66 2.75 1.52 0.83 0.86 1.72 1.32 2 1.03 0.28-0.3 1.97 0.93 3.77 2.72 1.8 1.8 3.26 4.06 3.25 5.02-0.01 0.96 0.77 1.98 1.73 2.26 0.96 0.28 1.41 0.73 1 1-0.41 0.27 0.12 1.95 1.18 3.74 1.06 1.79 1.73 3.81 1.5 4.5-0.24 0.69 0.02 1.47 0.57 1.75 0.59 0.29 1.01 5.78 1.03 13.25 0.02 9.28-0.37 13.57-1.45 15.75-0.81 1.65-1.49 5.03-1.51 7.5-0.01 2.47-0.43 4.95-0.92 5.5-0.49 0.55-0.94 2.58-1.01 4.5-0.07 1.92-0.5 3.95-0.96 4.5-0.45 0.55-0.93 2.12-1.07 3.5-0.13 1.37-0.32 3.02-0.42 3.65-0.11 0.64-0.53 0.98-0.94 0.75-0.41-0.22-0.82 0.16-0.9 0.85-0.09 0.69-0.21 1.7-0.27 2.25-0.07 0.55-0.63 2.35-1.26 4-0.62 1.65-1.48 3.9-1.9 5-0.42 1.1-0.91 3.12-1.08 4.5-0.18 1.37-0.89 2.83-1.58 3.23-0.69 0.41-0.81 0.75-0.26 0.77q1 0.03 0 0.77c-0.55 0.4-1.56 1.74-2.25 2.98-0.69 1.24-1.25 2.92-1.25 3.75 0 0.83-1.01 2.96-2.25 4.74-1.24 1.78-2.83 4.36-3.53 5.75-0.71 1.38-1.27 3.07-1.25 3.76 0.02 0.69-0.86 1.81-1.94 2.5-1.09 0.69-2.21 2.26-2.5 3.5-0.29 1.24-1.27 3.04-2.17 4-0.9 0.96-2.03 2.76-2.5 4-0.47 1.24-0.53 2.81-0.12 3.5q0.73 1.24-0.5 0.5c-0.73-0.44-1.23-0.23-1.21 0.5 0.02 0.69 1.14 2.49 2.5 4 1.92 2.14 3.24 2.69 5.93 2.5 1.91-0.14 3.92-0.92 4.48-1.75 0.55-0.83 2.59-3.86 4.53-6.75 1.94-2.89 3.53-5.7 3.53-6.25 0-0.55 0.67-1.22 1.5-1.5 0.82-0.28 1.5-1.4 1.5-2.5 0-1.1 0.45-2 1-2 0.55 0 1-0.45 1-1 0-0.55 1.12-2.8 2.5-5 1.37-2.2 2.16-3.99 1.75-3.97-0.41 0.02-0.08-0.77 0.75-1.75 0.82-0.98 2.06-2.79 2.75-4.03 0.69-1.24 1.23-3.04 1.21-4-0.03-0.96 0.67-2.42 1.54-3.25 0.87-0.83 1.57-2.29 1.54-3.25-0.02-0.96 0.41-1.75 0.96-1.75 0.55 0 0.99-1.01 0.98-2.25-0.01-1.24 0.65-3.15 1.47-4.25 0.82-1.1 1.5-3.24 1.52-4.75 0.02-1.51 0.48-2.97 1.03-3.25 0.55-0.28 1-1.85 1-3.5 0-1.65 0.34-3.18 0.75-3.4 0.41-0.22 0.87-2.13 1.02-4.25 0.15-2.12 0.71-4.41 1.25-5.1 0.54-0.69 0.76-1.7 0.48-2.25-0.28-0.55-0.05-1 0.5-1 0.55 0 1-2.25 1-5 0-2.75 0.45-5.22 1-5.5 0.62-0.31 0.97-7.51 0.93-18.75-0.04-10.04-0.46-18.7-0.93-19.25-0.47-0.55-1.1-2.35-1.41-4-0.3-1.65-1.01-3.11-1.57-3.25-0.56-0.14-1-1.04-0.98-2 0.03-0.96-0.66-2.42-1.52-3.25-0.86-0.83-1.33-1.72-1.04-2 0.29-0.28-2.96-3.98-7.23-8.24-4.26-4.25-8.43-7.74-9.25-7.75-0.83 0-1.84-0.68-2.25-1.51-0.41-0.83-1.65-1.5-2.75-1.5-1.1 0-2.22-0.45-2.5-1-0.28-0.55-2.3-1-4.5-1-2.2 0-4.22-0.45-4.5-1-0.28-0.55-2.43-1-4.8-1-2.37 0-4.73 0.43-5.25 0.95zm89.65 54.1c-2.55 3.55-2.93 4.97-2.99 11.25-0.05 3.96-0.54 7.65-1.11 8.2-0.57 0.55-1.03 3.81-1.02 7.25 0.01 3.44-0.32 6.43-0.73 6.65-0.41 0.22-0.88 2.36-1.03 4.75-0.16 2.39-0.72 4.8-1.25 5.35-0.52 0.55-0.62 1.35-0.21 1.78 0.41 0.43 0.18 0.76-0.51 0.75-0.73-0.02-1.25 1.22-1.25 2.97 0 1.65-0.45 3.22-1 3.5-0.55 0.28-1 1.62-1 3 0 1.37-0.45 2.72-1 3-0.55 0.28-1 1.4-1 2.5 0 1.1-0.68 2.67-1.5 3.5-0.83 0.83-1.5 2.62-1.5 4 0 1.37-0.45 2.72-1 3-0.55 0.28-1 1.4-1 2.5 0 1.1-0.45 2-1 2-0.55 0-0.99 0.79-0.98 1.75 0.01 0.96-0.56 2.35-1.25 3.08-0.7 0.73-1.83 2.98-2.51 5-1.18 3.48-1.11 3.79 1.5 5.97 1.5 1.26 3.53 2.73 4.49 3.25 1.13 0.62 1.75 0.6 1.75-0.05 0-0.55 0.56-0.79 1.25-0.53 0.69 0.26 1.92-0.08 2.75-0.75 0.82-0.67 2.17-2.57 3-4.22 0.82-1.65 2.06-3.34 2.75-3.75 0.69-0.41 1.25-1.88 1.25-3.25 0-1.38 0.45-2.28 1-2 0.55 0.28 1-0.4 1-1.5 0-1.1 0.45-2.22 1-2.5 0.55-0.28 1-1.85 1-3.5 0-1.78 0.61-3.2 1.5-3.5 0.89-0.3 1.5-1.72 1.5-3.5 0-1.65 0.45-3.22 1-3.5 0.55-0.28 0.81-1.06 0.57-1.75-0.23-0.69 0.22-2.6 1.02-4.25 0.79-1.65 1.54-4.87 1.67-7.16 0.13-2.29 0.58-3.97 0.99-3.75 0.41 0.23 0.92-0.38 1.13-1.34 0.21-0.96 0.46-3.55 0.56-5.75 0.1-2.2 0.55-4.45 0.99-5 0.44-0.55 0.89-3.7 0.99-7 0.1-3.3 0.56-6.45 1.01-7 0.45-0.55 0.88-4.71 0.95-9.25 0.11-7.68-0.07-8.46-2.63-11.28-1.51-1.67-3.54-3.02-4.49-3-0.96 0.02-3.06 1.85-4.66 4.08zm25.19-25.28c-2.14 1.68-2.2 2.32-2.21 21.23-0.01 10.72-0.41 19.95-0.91 20.5-0.49 0.55-0.96 3.03-1.05 5.5-0.09 2.47-0.77 5.4-1.5 6.5-0.74 1.1-1.63 3.69-1.98 5.75-0.35 2.06-0.86 5.33-1.14 7.25-0.43 2.99-0.03 3.93 2.75 6.47 1.79 1.63 3.7 2.97 4.25 2.97 0.55 0 2.01-0.89 3.25-1.97 1.24-1.08 2.25-2.42 2.25-2.97 0-0.55 0.45-0.78 1-0.5 0.55 0.28 1.05-0.74 1.12-2.25 0.06-1.51 0.06-3.09 0-3.5-0.07-0.41 0.33-0.53 0.88-0.25 0.55 0.28 1.28-0.51 1.62-1.75 0.34-1.24 0.34-2.81 0-3.5-0.34-0.69 0.08-1.81 0.92-2.5 0.98-0.79 1.53-2.83 1.5-5.5-0.02-2.34 0.41-4.47 0.96-4.75 0.62-0.31 1.01-8.61 1.02-21.75l0.02-21.25c-4.3-4.25-6.66-5.46-8.04-5.46-1.38 0-3.49 0.78-4.71 1.73zm-114.43-3.23c-0.75 0.85-1.92 1.53-2.61 1.5-0.69-0.02-2.26 0.52-3.5 1.21-1.24 0.69-3.05 1.92-4.03 2.75-0.98 0.83-1.77 2.29-1.75 3.25 0.02 0.96-0.42 1.75-0.97 1.75-0.62 0-1 5.67-1 15 0 11.04-0.37 15.59-1.39 17.25-0.76 1.24-1.42 3.83-1.47 5.75-0.05 1.92-0.56 3.95-1.13 4.5-0.58 0.55-1.04 2.24-1.03 3.75 0.01 1.51-0.43 2.97-0.98 3.25-0.55 0.28-1 1.85-1 3.5 0 1.78-0.61 3.2-1.5 3.5-0.83 0.28-1.3 1.06-1.05 1.75 0.24 0.69-0.2 2.15-0.97 3.25-0.78 1.1-1.43 3.01-1.45 4.25-0.02 1.24-1.04 3.71-2.28 5.49-1.24 1.78-2.83 4.36-3.53 5.75-0.71 1.38-1.27 2.85-1.25 3.26 0.02 0.41-0.41 1.31-0.96 2-0.54 0.69-2.56 3.39-4.5 6-1.93 2.61-3.51 5.2-3.51 5.75 0 0.55-1.53 2.46-3.41 4.25-1.87 1.79-3.56 3.89-3.75 4.68-0.19 0.78-1.92 2.99-3.84 4.91-2.11 2.1-3.53 4.51-3.57 6.07-0.05 1.47 0.93 3.56 2.25 4.84 1.43 1.39 3.57 2.26 5.57 2.26 2.54 0.01 4.24-0.98 7.75-4.51 2.47-2.49 4.16-4.52 3.75-4.51-0.41 0-0.05-0.78 0.81-1.74 0.86-0.96 3.33-3.78 5.5-6.25 2.17-2.47 3.93-4.95 3.91-5.5-0.02-0.55 0.87-1.9 1.98-3 1.11-1.1 1.81-2.22 1.56-2.5-0.25-0.28 0.44-1.51 1.52-2.75 1.08-1.24 1.63-2.24 1.22-2.23-0.41 0.01 0.15-0.7 1.25-1.58 1.1-0.87 1.32-1.3 0.5-0.94-0.83 0.36-0.49-0.28 0.75-1.42 1.24-1.15 2.23-2.64 2.21-3.33-0.03-0.69 0.67-1.92 1.54-2.75 0.87-0.83 1.57-2.29 1.54-3.25-0.02-0.96 0.41-1.97 0.96-2.25 0.55-0.28 1-1.4 1-2.5 0-1.1 0.37-2.79 0.83-3.75 0.46-0.96 1.58-3.21 2.5-5 0.92-1.79 1.67-4.38 1.67-5.75 0-1.38 0.34-2.68 0.75-2.9 0.41-0.22 0.86-1.91 0.99-3.75 0.14-1.84 0.63-3.8 1.1-4.35 0.47-0.55 0.96-3.47 1.08-6.5 0.12-3.03 0.64-6.06 1.15-6.75 0.51-0.69 0.59-1.81 0.18-2.49q-0.74-1.23 0.5-0.5c0.97 0.57 1.25-1.83 1.25-10.76v-11.5c7.22 0.42 8.52 0.95 8.56 2 0.03 0.83 0.39 2.17 0.81 3 0.41 0.83 0.5 4.2 0.19 7.5-0.31 3.3-0.81 8.92-1.11 12.5-0.3 3.58-0.95 6.72-1.44 7-0.49 0.28-0.84 2.97-0.77 6 0.1 4.21 0.62 5.92 2.2 7.28 1.13 0.98 3.41 1.78 5.06 1.78 1.79 0 3.81-0.87 5-2.15 1.1-1.18 2.14-3.11 2.3-4.28 0.17-1.17 0.67-2.58 1.12-3.13 0.44-0.55 0.89-3.47 0.99-6.5 0.1-3.03 0.57-5.95 1.03-6.5 0.47-0.55 0.9-5.39 0.96-10.75 0.06-5.61-0.32-9.96-0.9-10.25-0.55-0.28-0.99-1.51-0.97-2.75 0.02-1.24-0.54-3.38-1.25-4.76-0.7-1.39-2.23-3.86-3.38-5.5-1.16-1.65-3.64-3.64-5.5-4.43-1.87-0.79-3.74-2.03-4.15-2.75-0.42-0.73-2.48-1.31-4.64-1.31-2.25 0-4.46 0.65-5.25 1.54zm-84.61-13.51c-1.32 1.16-2.24 3.1-2.23 4.72 0.01 1.51-0.42 3.2-0.95 3.75-0.55 0.57-0.99 9.15-1.02 19.75-0.03 12.15-0.4 18.57-1.05 18.25-0.55-0.28-1.24 0.29-1.54 1.25-0.29 0.96-0.46 2.2-0.38 2.75 0.09 0.55 0.1 2.01 0.04 3.25-0.07 1.24-0.57 2.03-1.12 1.75-0.55-0.28-1 0.17-1 1 0 0.83-0.68 2.62-1.5 4-0.83 1.37-1.28 2.5-1 2.5 0.28 0-1.3 1.58-3.5 3.5-2.52 2.2-3.73 3.96-3.26 4.75 0.44 0.75 0.34 0.96-0.25 0.52-0.54-0.4-2.23 0.62-3.74 2.25-2 2.17-2.74 4-2.72 6.73 0.02 2.06 0.58 4.44 1.25 5.28 0.67 0.84 2.91 1.63 4.97 1.75 2.06 0.12 3.75-0.23 3.75-0.78 0-0.55 0.79-0.99 1.75-0.97 0.96 0.02 2.54-0.77 3.5-1.75 0.97-0.98 1.42-2.13 1-2.56-0.41-0.43 0.15-0.75 1.25-0.72 1.1 0.03 1.66-0.29 1.25-0.72-0.41-0.43 0.15-1.34 1.25-2.03 1.1-0.69 2.02-1.81 2.04-2.5 0.02-0.69 0.81-1.92 1.75-2.75 0.94-0.83 1.82-2.06 1.96-2.75 0.14-0.69 1.37-3.05 2.75-5.25 1.37-2.2 2.5-4.67 2.5-5.5 0-0.83 0.45-1.5 1-1.5 0.55 0 1-2.47 1-5.5 0-3.33 0.39-5.3 1-5 0.55 0.28 1.22-0.17 1.5-1 0.28-0.83 0.49-9.94 0.48-20.25-0.02-13.87 0.3-19.09 1.25-20.04 1.03-1.05 0.61-1.94-2.23-4.72-1.93-1.88-4.4-3.43-5.5-3.42-1.1 0-3.01 0.88-4.25 1.96zm89.56 87.29c-0.67 0.59-1.12 0.77-1.01 0.38 0.11-0.38-0.7 0.2-1.8 1.3-1.1 1.1-1.78 2.22-1.5 2.5 0.28 0.28-0.86 3.09-2.52 6.25-1.65 3.16-3 6.54-3 7.5 0.01 0.96-0.43 1.53-0.98 1.25-0.55-0.28-1 0.4-1 1.5 0 1.1-0.45 2.22-1 2.5-0.55 0.28-1.69 1.96-2.53 3.75-0.84 1.79-2.07 4.19-2.75 5.34-0.67 1.14-1.9 2.85-2.72 3.79-0.83 0.94-1.05 1.67-0.5 1.62 0.55-0.05-0.91 1.84-3.25 4.2-2.34 2.37-4.26 4.86-4.25 5.55 0 0.69-1.38 2.71-3.06 4.5-1.69 1.79-3.3 4.37-3.59 5.75-0.37 1.78 0.15 3.15 1.81 4.75 1.29 1.23 2.56 2.02 2.84 1.74 0.28-0.27 1.17 0.19 2 1.03 1.35 1.37 1.81 1.36 4.5-0.11 1.65-0.9 4.35-3.8 6-6.43 1.65-2.64 3.45-4.5 3.99-4.14 0.58 0.39 0.68 0.14 0.25-0.59-0.45-0.76 0.44-2.43 2.26-4.25 1.65-1.65 2.99-3.56 2.97-4.25-0.01-0.69 1.13-2.38 2.53-3.75 1.4-1.38 2.54-3.29 2.53-4.25-0.02-0.96 0.42-1.75 0.97-1.75 0.55 0 0.78-0.34 0.52-0.75-0.27-0.41 0.42-1.88 1.53-3.25 1.1-1.38 1.99-3.17 1.96-4-0.02-0.83 0.37-1.95 0.88-2.5 0.51-0.55 1.86-2.69 3.02-4.75 1.15-2.06 2.07-4.31 2.05-5-0.03-0.69 0.67-1.92 1.54-2.75 0.87-0.83 1.58-3.08 1.57-5q-0.02-3.5-2.29-5.61c-1.26-1.16-3.29-2.35-4.52-2.64-1.24-0.28-2.79-0.03-3.45 0.57zm-62.82 9.96c-2.98 2.91-5.32 5.72-5.18 6.25 0.14 0.53-3.59 4.91-8.28 9.72-4.69 4.81-8.54 9.31-8.56 10-0.02 0.69 1.45 2.59 3.25 4.23 1.8 1.64 4.29 3.1 5.53 3.25 1.7 0.2 4.83-2.31 12.75-10.23 5.78-5.78 10.49-11.06 10.47-11.75-0.02-0.69 0.89-2.15 2.03-3.25 1.46-1.42 2.06-3.24 2.03-6.25-0.02-3.45-0.5-4.53-2.53-5.75-1.38-0.83-3.3-1.5-4.29-1.5-0.98 0-4.23 2.38-7.22 5.28zm142.76-152.26c-1.58 1.71-2.76 4.15-2.78 5.73-0.02 1.55 0.9 3.62 2.1 4.75 1.18 1.1 2.84 3.35 3.71 5 0.86 1.65 2.62 4.01 3.89 5.25 1.28 1.24 2.33 2.7 2.33 3.25 0 0.55 0.56 0.66 1.24 0.25q1.23-0.74 0.5 0.5c-0.41 0.7 0.07 2.24 1.11 3.5 1.02 1.24 1.69 2.81 1.5 3.5-0.19 0.69 0.1 1.25 0.65 1.25 0.55 0 1.71 1.69 2.58 3.75 0.88 2.06 2 4.54 2.5 5.5 0.51 0.96 0.92 2.87 0.92 4.25 0 1.37 0.45 2.5 1 2.5 0.55 0 1.24 1.46 1.54 3.25 0.3 1.79 1.54 4.43 2.75 5.87q2.21 2.62 5.21 2.65c1.65 0.01 4.46-1.06 6.25-2.37 2.41-1.78 3.25-3.17 3.25-5.4 0-1.65-0.45-3.22-1-3.5-0.55-0.28-0.99-1.51-0.98-2.75 0.01-1.24-0.65-3.15-1.47-4.25-0.82-1.1-1.5-2.79-1.52-3.75-0.02-0.96-0.48-1.75-1.03-1.75-0.55 0-1-0.9-1-2 0-1.1-1.19-4.14-2.65-6.75-1.47-2.61-3.15-5.66-3.75-6.78-0.61-1.12-2.12-3.14-3.37-4.5-1.25-1.36-2.26-2.92-2.24-3.47 0.01-0.55-3.13-4.15-6.99-8-3.86-3.85-7.03-6.55-7.04-6-0.01 0.55-0.46 0.21-0.99-0.75-0.53-0.96-1.53-1.74-2.22-1.73-0.69 0.01-2.49 1.36-4 3zm-66.68-6.99c-2.17 0.81-2.41 1.44-2.25 5.94 0.16 4.35 0.52 5.17 2.68 6.03 1.37 0.55 2.72 1.45 3 2 0.28 0.55 1.85 1 3.5 1 1.65 0 3.22 0.45 3.5 1 0.28 0.55 1.85 1 3.5 1 1.65 0 3 0.45 3 1 0 0.55 0.9 1 2 1 1.1 0 2.22 0.45 2.5 1 0.28 0.55 1.96 1.68 3.75 2.52 1.79 0.84 3.59 1.51 4 1.5 0.41-0.01 1.99 1.11 3.5 2.48 1.51 1.38 3.2 2.49 3.75 2.48 0.55-0.02 3.7 2.63 7 5.88 3.3 3.24 6.67 7.19 7.5 8.77 0.83 1.58 2.3 3.77 3.28 4.87 0.98 1.1 1.99 2.79 2.25 3.75 0.26 0.96 0.92 1.75 1.47 1.75 0.55 0 1 0.9 1 2 0 1.1 0.45 2.22 1 2.5 0.55 0.28 1 1.4 1 2.5 0 1.1 0.53 2 1.17 2 0.64 0 0.87 0.34 0.5 0.75-0.36 0.41-0.22 1.2 0.3 1.75 0.53 0.55 1.06 2.35 1.2 4 0.13 1.65 0.6 3.22 1.03 3.5 0.44 0.28 0.86 2.3 0.94 4.5 0.07 2.2 0.5 4.45 0.95 5 0.44 0.55 0.94 1.98 1.11 3.18 0.16 1.2 1.2 3.01 2.3 4.03 1.1 1.02 3.58 1.9 5.5 1.96 1.99 0.07 4.27-0.59 5.28-1.53 1.32-1.22 1.78-3.12 1.75-7.39-0.02-3.16-0.48-5.97-1.03-6.25-0.55-0.28-1-2.3-1-4.5 0-2.2-0.45-4.22-1-4.5-0.55-0.28-0.98-1.74-0.96-3.25 0.03-1.51-0.67-3.42-1.54-4.25-0.87-0.83-1.57-2.51-1.54-3.75 0.02-1.24-0.41-2.47-0.96-2.75-0.55-0.28-1-1.4-1-2.5 0-1.1-0.45-2-1-2-0.55 0-0.99-0.79-0.97-1.75 0.01-0.96-1.13-2.88-2.53-4.25-1.4-1.38-2.53-2.95-2.49-3.5 0.03-0.55-0.91-1.9-2.08-3-1.18-1.1-2.84-3.35-3.7-5-0.85-1.65-3.17-4.6-5.14-6.56-1.98-1.96-5.39-4.71-7.59-6.11-2.2-1.39-4.67-3.3-5.5-4.23-0.83-0.93-1.95-1.65-2.5-1.61-0.55 0.04-1.9-0.85-3-1.99-1.1-1.14-2.79-2.05-3.75-2.03-0.96 0.02-1.74-0.31-1.73-0.72 0.01-0.41-1.68-1.53-3.75-2.48-2.07-0.96-4.33-1.74-5.02-1.75-0.69-0.01-1.25-0.47-1.25-1.02 0-0.55-1.46-1.01-3.25-1.03-1.79-0.02-4.15-0.7-5.25-1.52-1.13-0.84-3.96-1.45-6.5-1.4-2.47 0.04-5.59 0.48-6.93 0.98zm-26.52-30.03c-0.3 0.55-3.13 1-6.28 1-3.39 0-6.77 0.63-8.25 1.53-1.39 0.84-3.76 1.52-5.27 1.5-1.51-0.02-2.75 0.42-2.75 0.97 0 0.55-1.21 1-2.68 1-1.48 0-3.39 0.38-4.25 0.85-0.86 0.47-3.15 1.53-5.07 2.36-1.92 0.83-6.12 2.81-9.33 4.4-3.2 1.59-6.58 3.68-7.51 4.64-0.93 0.96-2.4 1.75-3.27 1.75-0.87 0-3.12 1.58-4.99 3.52-1.87 1.93-3.92 3.51-4.54 3.5-0.63-0.01-4.8 3.81-9.25 8.48-4.46 4.67-8.11 8.84-8.11 9.25 0.01 0.41-1.23 2.09-2.75 3.73-1.51 1.64-2.85 3.67-2.98 4.5-0.12 0.84-1.36 2.53-2.75 3.77-1.38 1.24-2.3 2.7-2.02 3.25 0.28 0.55-0.2 1.56-1.04 2.25-0.85 0.69-1.53 2.04-1.5 3 0.02 0.96-0.63 1.97-1.46 2.25-0.83 0.28-1.5 1.4-1.5 2.5 0 1.1-0.45 2-1 2-0.55 0-1 0.9-1 2 0 1.1-0.45 2.22-1 2.5-0.55 0.28-0.98 1.74-0.96 3.25 0.03 1.51-0.63 3.42-1.47 4.25-0.83 0.83-1.51 3.08-1.49 5 0.01 1.92-0.46 3.95-1.05 4.5-0.58 0.55-1.06 4.04-1.05 7.75 0.01 3.71-0.43 6.97-0.98 7.25-0.61 0.31-1 7.5-1 18.5 0 11.67 0.35 17.82 1 17.5 0.55-0.28 1-0.05 1 0.5 0 0.55 0.79 1.9 1.75 3.01 0.96 1.1 2.42 2.01 3.25 2.02 0.83 0 2.92-1.46 4.66-3.26l3.16-3.27c0.25-20.15 0.74-26.79 1.25-27.75 0.51-0.96 0.93-5.13 0.93-9.25 0-4.13 0.45-7.72 1-8 0.55-0.28 1-2.08 1-4 0-1.92 0.34-3.67 0.75-3.87 0.41-0.2 1.54-2.67 2.5-5.5 0.96-2.82 1.75-5.8 1.75-6.63 0-0.83 0.45-1.5 1-1.5 0.55 0 1-0.9 1-2 0-1.1 0.67-2.22 1.5-2.5 0.83-0.28 1.49-1.29 1.47-2.25-0.02-0.96 0.89-2.65 2.03-3.75 1.14-1.1 2.05-2.67 2.03-3.5-0.02-0.83 0.86-2.06 1.97-2.75 1.1-0.69 2.74-2.71 3.65-4.5 0.9-1.79 4.73-6.29 8.5-10 3.77-3.71 7.19-6.73 7.6-6.72 0.41 0.02 2.21-1.33 4-3 1.79-1.66 3.81-3.02 4.5-3 0.69 0.01 2.37-1.13 3.75-2.53 1.37-1.4 3.29-2.54 4.25-2.53 0.96 0.02 1.75-0.42 1.75-0.97 0-0.55 0.79-1.01 1.75-1.03 0.96-0.02 2.65-0.7 3.75-1.52 1.1-0.82 3.01-1.48 4.25-1.47 1.24 0.01 2.25-0.43 2.25-0.98 0-0.55 1.35-1 3-1 1.65 0 3.22-0.45 3.5-1 0.28-0.55 2.19-0.98 4.25-0.96 2.18 0.03 4.38-0.62 5.25-1.54 1.27-1.35 4.32-1.58 20-1.51 14.71 0.06 18.91 0.38 20.5 1.56 1.1 0.82 3.46 1.48 5.25 1.47 1.79-0.01 3.47 0.43 3.75 0.98 0.28 0.55 1.85 1 3.5 1 1.65 0 3.22 0.45 3.5 1 0.28 0.55 1.51 0.98 2.75 0.96 1.24-0.03 2.92 0.67 3.75 1.54 0.83 0.87 2.06 1.57 2.75 1.54 0.69-0.02 2.04 0.34 3 0.81 0.96 0.47 3.1 1.6 4.75 2.53 1.65 0.92 4.93 2.68 7.29 3.9l4.29 2.22c5.41-5.44 6.95-8 6.94-9.25-0.01-1.24-1.37-3.6-3.02-5.25-1.65-1.65-3.34-3.01-3.75-3.03-0.41-0.01-2.21-1.14-4-2.5-1.79-1.36-3.92-2.47-4.75-2.47-0.83 0-1.5-0.45-1.5-1 0-0.55-0.79-0.99-1.75-0.98-0.96 0.02-3.89-1.11-6.5-2.5-2.61-1.38-5.88-2.52-7.25-2.52-1.38 0-2.72-0.45-3-1-0.28-0.55-1.74-1.01-3.25-1.03-1.51-0.02-3.65-0.7-4.75-1.52-1.12-0.83-4.09-1.48-6.75-1.47-2.61 0.01-4.97-0.43-5.25-0.98-0.3-0.59-6.15-1-14.45-1-8.27 0-14.18 0.41-14.5 1zm-6.55 28c-0.83 0.53-2.64 0.98-4.04 0.98-1.4 0.01-3.2 0.72-4 1.56-0.8 0.85-2.61 1.53-4.01 1.5-1.41-0.02-2.87 0.41-3.25 0.96-0.39 0.55-1.6 1-2.7 1-1.1 0-2 0.45-2 1 0 0.55-1.13 1.22-2.5 1.5-1.38 0.28-2.5 0.95-2.5 1.5 0 0.55-0.56 0.99-1.25 0.98-0.69-0.01-2.6 0.65-4.25 1.47-1.65 0.82-4.58 2.86-6.5 4.52-1.92 1.66-3.99 3.03-4.6 3.03-0.6 0-4.76 3.83-9.25 8.5-4.48 4.67-8.14 8.84-8.12 9.25 0.02 0.41-0.9 1.87-2.03 3.25-1.13 1.37-2.05 3.51-2.03 4.75 0.02 1.24 1.4 3.49 3.08 5 1.68 1.51 4.15 2.86 5.5 3 1.79 0.18 3.06-0.62 4.7-2.99 1.24-1.78 3.94-4.7 6-6.5 2.06-1.79 3.53-3.71 3.25-4.26-0.28-0.55 0.06-0.89 0.75-0.75 0.69 0.14 1.1-0.42 0.92-1.25-0.19-0.83 0.04-1.17 0.5-0.78 0.45 0.4 3.09-1.4 5.86-4 2.77-2.59 6.7-5.51 8.75-6.47 2.05-0.96 3.72-2.2 3.72-2.75 0-0.55 0.67-1 1.5-1 0.83 0 2.4-0.45 3.5-1 1.1-0.55 2.9-1.45 4-2 1.1-0.55 2.79-1.01 3.75-1.03 0.96-0.02 2.65-0.7 3.75-1.52 1.1-0.82 3.46-1.48 5.25-1.47 1.79 0.01 3.47-0.43 3.75-0.98 0.28-0.55 3.31-1.01 6.75-1.02 4.41-0.02 6.87-0.53 8.37-1.75 1.16-0.95 2.37-2.86 2.69-4.23 0.32-1.38-0.08-3.96-0.87-5.75l-1.44-3.25c-15.11 0.02-20.17 0.47-21 1z"/>
			<path id="Path 35" fill-rule="evenodd" class="s0" d="m-588 1279.5v178.5h2399v-357h-2399z"/>
		</g>
	</g>
</svg>